<?xml version="1.0" encoding="utf-8"?>
<!-- Generator: Adobe Illustrator 27.5.0, SVG Export Plug-In . SVG Version: 6.00 Build 0)  -->
<svg version="1.1" xmlns="http://www.w3.org/2000/svg" xmlns:xlink="http://www.w3.org/1999/xlink" x="0px" y="0px"
	 viewBox="0 0 500 500" style="enable-background:new 0 0 500 500;" xml:space="preserve">
<g id="BACKGROUND">
	<linearGradient id="SVGID_1_" gradientUnits="userSpaceOnUse" x1="250" y1="261.25" x2="250" y2="-228.081">
		<stop  offset="0" style="stop-color:#3389DF"/>
		<stop  offset="1" style="stop-color:#0062AF"/>
	</linearGradient>
	<rect style="fill:url(#SVGID_1_);" width="500" height="500"/>
</g>
<g id="OBJECTS">
	<g>
		<rect y="351" style="fill:#0062AF;" width="500" height="149"/>
	</g>
	<g>
		<text transform="matrix(1 0 0 1 197.7324 60.8604)"><tspan x="0" y="0" style="fill:#FAFFFF; font-family:'BebasNeueBold'; font-size:38.9535px;">chat </tspan><tspan x="67.427" y="0" style="fill:#00DED1; font-family:'BebasNeueRegular'; font-size:38.9535px;">bot</tspan></text>
	</g>
	<g>
		<g style="opacity:0.2;">
			<path style="fill:#F7FFFF;" d="M247.897,330.699c-0.471,0-0.942-0.003-1.413-0.008c-2.047-0.023-3.688-1.701-3.665-3.748
				c0.023-2.047,1.708-3.69,3.748-3.665c5.123,0.057,10.311-0.223,15.376-0.833c2.032-0.246,3.879,1.204,4.124,3.236
				c0.245,2.033-1.204,3.879-3.237,4.124C257.91,330.399,252.886,330.699,247.897,330.699z M233.516,329.845
				c-0.147,0-0.296-0.009-0.445-0.027c-5.414-0.648-10.83-1.665-16.097-3.022c-1.982-0.511-3.175-2.532-2.664-4.515
				c0.511-1.982,2.532-3.174,4.515-2.664c4.949,1.276,10.039,2.231,15.127,2.84c2.033,0.243,3.483,2.088,3.24,4.121
				C236.967,328.461,235.367,329.845,233.516,329.845z M275.229,327.568c-1.684,0-3.207-1.155-3.606-2.865
				c-0.465-1.993,0.774-3.987,2.767-4.452c4.985-1.163,9.937-2.674,14.721-4.491c1.913-0.726,4.054,0.235,4.781,2.149
				c0.727,1.914-0.235,4.054-2.149,4.781c-5.091,1.934-10.362,3.542-15.668,4.78C275.792,327.536,275.508,327.568,275.229,327.568z
				 M205.462,322.968c-0.436,0-0.88-0.078-1.312-0.241c-5.091-1.929-10.106-4.222-14.904-6.815
				c-1.801-0.974-2.472-3.223-1.498-5.023c0.973-1.801,3.222-2.472,5.023-1.498c4.509,2.437,9.221,4.592,14.005,6.404
				c1.914,0.725,2.878,2.865,2.153,4.779C208.367,322.056,206.958,322.968,205.462,322.968z M302.352,317.64
				c-1.348,0-2.648-0.738-3.304-2.02c-0.932-1.823-0.209-4.056,1.613-4.988c4.552-2.326,8.995-4.983,13.206-7.896
				c1.684-1.165,3.992-0.744,5.157,0.939c1.165,1.684,0.744,3.993-0.94,5.157c-4.48,3.099-9.207,5.926-14.05,8.401
				C303.496,317.509,302.92,317.64,302.352,317.64z M179.883,309.538c-0.727,0-1.46-0.213-2.103-0.657
				c-4.478-3.093-8.796-6.518-12.832-10.178c-1.516-1.375-1.631-3.719-0.256-5.236c1.375-1.516,3.719-1.631,5.236-0.256
				c3.795,3.442,7.854,6.661,12.065,9.57c1.684,1.163,2.107,3.472,0.943,5.156C182.217,308.979,181.059,309.538,179.883,309.538z
				 M326.287,301.5c-1.039,0-2.071-0.434-2.804-1.28c-1.34-1.548-1.172-3.889,0.376-5.229c3.87-3.351,7.554-6.993,10.951-10.824
				c1.358-1.532,3.701-1.673,5.232-0.315c1.532,1.358,1.673,3.701,0.315,5.232c-3.612,4.074-7.53,7.947-11.645,11.511
				C328.011,301.202,327.147,301.5,326.287,301.5z M158.265,290.391c-1.023,0-2.041-0.421-2.773-1.246
				c-3.616-4.073-6.993-8.425-10.037-12.935c-1.145-1.697-0.699-4.001,0.998-5.146c1.697-1.145,4.001-0.698,5.146,0.998
				c2.862,4.24,6.037,8.331,9.437,12.162c1.359,1.531,1.219,3.874-0.311,5.233C160.018,290.083,159.14,290.391,158.265,290.391z
				 M345.692,280.116c-0.742,0-1.49-0.222-2.141-0.683c-1.67-1.184-2.064-3.498-0.879-5.168c2.965-4.181,5.675-8.597,8.056-13.124
				c0.953-1.812,3.195-2.508,5.006-1.556c1.812,0.953,2.508,3.194,1.556,5.006c-2.533,4.817-5.416,9.514-8.57,13.962
				C347.997,279.572,346.853,280.116,345.692,280.116z M141.832,266.654c-1.332,0-2.619-0.719-3.283-1.98
				c-2.541-4.823-4.779-9.859-6.653-14.969c-0.705-1.922,0.282-4.051,2.204-4.756c1.922-0.704,4.051,0.282,4.756,2.204
				c1.76,4.801,3.864,9.534,6.251,14.066c0.954,1.811,0.259,4.053-1.552,5.007C143.006,266.517,142.415,266.654,141.832,266.654z
				 M359.439,254.71c-0.452,0-0.91-0.083-1.355-0.258c-1.905-0.749-2.842-2.901-2.093-4.806c1.874-4.766,3.443-9.704,4.664-14.678
				c0.488-1.988,2.494-3.205,4.484-2.716c1.988,0.488,3.204,2.495,2.716,4.484c-1.3,5.294-2.97,10.55-4.965,15.623
				C362.316,253.818,360.918,254.71,359.439,254.71z M131.563,239.663c-1.666,0-3.179-1.131-3.596-2.82
				c-1.301-5.279-2.261-10.705-2.852-16.127c-0.222-2.035,1.248-3.865,3.283-4.087c2.036-0.221,3.865,1.248,4.087,3.283
				c0.556,5.097,1.457,10.196,2.68,15.157c0.49,1.988-0.724,3.996-2.712,4.486C132.155,239.628,131.856,239.663,131.563,239.663z
				 M366.672,226.741c-0.162,0-0.326-0.011-0.49-0.033c-2.029-0.268-3.457-2.131-3.189-4.16c0.668-5.057,1.007-10.226,1.007-15.364
				l0-0.202c-0.007-2.047,1.647-3.712,3.695-3.719c0.004,0,0.008,0,0.012,0c2.041,0,3.7,1.652,3.706,3.695l0,0.226
				c0,5.462-0.36,10.958-1.071,16.336C370.096,225.384,368.503,226.741,366.672,226.741z M128.089,210.997
				c-2.047,0-3.707-1.66-3.707-3.707l0-0.107c0-5.425,0.356-10.885,1.057-16.226c0.267-2.03,2.127-3.459,4.158-3.193
				c2.03,0.267,3.459,2.128,3.193,4.158c-0.659,5.023-0.994,10.158-0.994,15.261l0,0.107
				C131.795,209.338,130.136,210.997,128.089,210.997z M366.979,197.655c-1.866,0-3.471-1.405-3.68-3.302
				c-0.56-5.096-1.466-10.195-2.694-15.154c-0.492-1.987,0.72-3.997,2.708-4.488c1.989-0.491,3.997,0.721,4.489,2.708
				c1.306,5.277,2.27,10.703,2.866,16.125c0.224,2.035-1.245,3.866-3.28,4.09C367.252,197.647,367.115,197.655,366.979,197.655z
				 M131.517,182.327c-0.292,0-0.588-0.035-0.884-0.107c-1.989-0.486-3.206-2.493-2.72-4.481c1.295-5.295,2.96-10.552,4.95-15.627
				c0.747-1.906,2.898-2.845,4.804-2.098c1.906,0.747,2.845,2.898,2.098,4.804c-1.87,4.768-3.434,9.708-4.651,14.682
				C134.701,181.193,133.185,182.327,131.517,182.327z M360.381,169.546c-1.51,0-2.928-0.929-3.479-2.429
				c-1.765-4.8-3.872-9.53-6.264-14.06c-0.956-1.81-0.263-4.053,1.547-5.008c1.81-0.956,4.053-0.263,5.008,1.547
				c2.545,4.821,4.788,9.855,6.666,14.963c0.706,1.921-0.278,4.052-2.2,4.758C361.238,169.472,360.806,169.546,360.381,169.546z
				 M141.733,155.304c-0.58,0-1.169-0.137-1.719-0.425c-1.813-0.951-2.511-3.192-1.56-5.004c2.529-4.819,5.408-9.519,8.558-13.97
				c1.183-1.671,3.496-2.067,5.167-0.884c1.671,1.183,2.067,3.496,0.884,5.167c-2.961,4.184-5.668,8.602-8.044,13.131
				C144.356,154.582,143.067,155.304,141.733,155.304z M347.211,143.85c-1.189,0-2.357-0.571-3.074-1.63
				c-2.866-4.237-6.044-8.326-9.447-12.153c-1.36-1.53-1.223-3.873,0.307-5.233c1.53-1.36,3.873-1.223,5.233,0.307
				c3.62,4.071,7,8.42,10.048,12.926c1.147,1.696,0.702,4-0.993,5.147C348.648,143.644,347.926,143.85,347.211,143.85z
				 M158.139,131.529c-0.873,0-1.749-0.307-2.455-0.931c-1.533-1.357-1.676-3.699-0.32-5.232c3.608-4.077,7.523-7.954,11.635-11.521
				c1.546-1.342,3.887-1.175,5.229,0.371c1.341,1.547,1.175,3.888-0.371,5.229c-3.867,3.355-7.548,7-10.941,10.834
				C160.184,131.106,159.164,131.529,158.139,131.529z M328.277,122.046c-0.887,0-1.777-0.316-2.487-0.959
				c-3.798-3.438-7.86-6.655-12.073-9.559c-1.685-1.162-2.11-3.47-0.948-5.156c1.162-1.685,3.47-2.11,5.156-0.948
				c4.481,3.089,8.801,6.51,12.841,10.167c1.518,1.374,1.634,3.718,0.26,5.235C330.294,121.635,329.287,122.046,328.277,122.046z
				 M179.733,112.352c-1.175,0-2.33-0.557-3.05-1.596c-1.166-1.682-0.748-3.992,0.935-5.158c4.478-3.104,9.202-5.934,14.042-8.413
				c1.822-0.933,4.056-0.213,4.989,1.609c0.933,1.822,0.213,4.056-1.609,4.989c-4.549,2.33-8.99,4.991-13.199,7.908
				C181.197,112.137,180.461,112.352,179.733,112.352z M304.689,105.373c-0.594,0-1.197-0.143-1.756-0.445
				c-4.511-2.433-9.224-4.583-14.011-6.392c-1.915-0.723-2.881-2.862-2.158-4.777c0.724-1.915,2.862-2.881,4.777-2.158
				c5.094,1.924,10.11,4.213,14.91,6.802c1.802,0.972,2.474,3.22,1.503,5.022C307.285,104.668,306.008,105.373,304.689,105.373z
				 M205.269,98.888c-1.494,0-2.902-0.91-3.465-2.389c-0.729-1.913,0.232-4.055,2.145-4.783c5.09-1.938,10.36-3.551,15.663-4.794
				c1.994-0.467,3.988,0.77,4.455,2.763c0.467,1.993-0.77,3.988-2.763,4.455c-4.983,1.167-9.934,2.683-14.717,4.504
				C206.153,98.81,205.707,98.888,205.269,98.888z M277.794,94.842c-0.305,0-0.615-0.038-0.925-0.118
				c-4.949-1.271-10.039-2.222-15.129-2.827c-2.033-0.241-3.485-2.085-3.243-4.118c0.242-2.033,2.085-3.485,4.118-3.244
				c5.416,0.643,10.833,1.655,16.099,3.008c1.983,0.509,3.177,2.53,2.668,4.512C280.951,93.73,279.445,94.842,277.794,94.842z
				 M233.296,91.962c-1.848,0-3.447-1.38-3.675-3.26c-0.247-2.032,1.2-3.88,3.233-4.126c4.956-0.602,10.017-0.907,15.041-0.907
				c0.433-0.004,0.871,0.002,1.305,0.007c2.047,0.021,3.689,1.697,3.668,3.744c-0.021,2.034-1.676,3.669-3.706,3.669
				c-0.013,0-0.026,0-0.039,0c-0.408-0.004-0.817-0.006-1.226-0.006c-0.001,0-0.002,0-0.003,0c-4.727,0-9.486,0.287-14.147,0.853
				C233.596,91.953,233.445,91.962,233.296,91.962z"/>
		</g>
		<g style="opacity:0.2;">
			<g>
				<path style="fill:#F7FFFF;" d="M132.682,290.068l1.217,12.727c0.193,2.017-1.259,3.82-3.271,4.061l-13.851,1.661
					c-1.116,0.134-2.128-0.661-2.259-1.775c-0.134-1.116,0.661-2.128,1.775-2.259l10.523-1.263
					c-7.174-6.14-13.268-13.837-18.139-22.913c-4.204-7.837-7.506-16.711-9.818-26.377c-3.929-16.422-3.639-29.301-3.625-29.842
					c0.032-1.254,1.076-2.244,2.331-2.21c1.254,0.032,2.244,1.076,2.21,2.331c-0.004,0.177-0.272,12.951,3.53,28.783
					c3.345,13.921,10.594,33.032,26.201,46.546l-0.869-9.086c-0.108-1.117,0.711-2.109,1.829-2.215
					C131.583,288.129,132.576,288.948,132.682,290.068z"/>
			</g>
		</g>
		<g style="opacity:0.2;">
			<g>
				<path style="fill:#F7FFFF;" d="M357.81,124.248l-1.364-13.176c-0.182-1.761,1.074-3.345,2.83-3.57l14.295-1.827
					c1.115-0.143,2.133,0.644,2.273,1.757c0.143,1.115-0.644,2.133-1.757,2.273l-10.512,1.346
					c7.221,6.084,13.376,13.733,18.317,22.77c4.265,7.804,7.636,16.652,10.024,26.299c4.057,16.391,3.868,29.271,3.859,29.813
					c-0.022,1.254-1.059,2.252-2.314,2.228c-1.254-0.022-2.252-1.059-2.228-2.314c0.002-0.177,0.171-12.952-3.755-28.755
					c-3.454-13.894-10.852-32.948-26.564-46.34l0.94,9.079c0.116,1.116-0.695,2.115-1.811,2.229
					C358.924,126.178,357.925,125.367,357.81,124.248z"/>
			</g>
		</g>
		<path style="opacity:0.2;fill:#F7FFFF;" d="M117.601,191.202v-5.58h-4.874c-0.318-1.687-0.968-3.258-1.889-4.635l3.697-3.697
			l-3.946-3.945l-3.811,3.811c-0.967-0.574-2.016-1.02-3.127-1.319v-5.093h-5.58v4.874c-1.687,0.318-3.258,0.968-4.635,1.889
			l-3.232-3.233l-3.946,3.946l3.346,3.346c-0.733,1.234-1.263,2.599-1.538,4.057h-4.874v5.58h5.093
			c0.418,1.554,1.125,2.986,2.064,4.242l-3.719,3.719l3.945,3.946l4.032-4.032c1.074,0.561,2.237,0.97,3.464,1.201v4.874h5.58
			v-5.093c1.111-0.299,2.16-0.745,3.127-1.319l3.811,3.811l3.946-3.945l-3.697-3.697c0.749-1.12,1.312-2.371,1.671-3.705H117.601z
			 M100.397,193.062c-2.82,0-5.115-2.295-5.115-5.115c0-2.82,2.295-5.115,5.115-5.115c2.82,0,5.115,2.294,5.115,5.115
			C105.512,190.767,103.217,193.062,100.397,193.062z"/>
		<path style="opacity:0.2;fill:#F7FFFF;" d="M414.183,224.724l-0.759-5.528l-4.829,0.663c-0.544-1.628-1.402-3.096-2.502-4.335
			l3.16-4.166l-4.445-3.372l-3.257,4.293c-1.036-0.437-2.136-0.736-3.277-0.882l-0.692-5.046l-5.528,0.759l0.663,4.829
			c-1.629,0.544-3.096,1.402-4.335,2.502l-3.642-2.763l-3.372,4.445l3.77,2.86c-0.558,1.322-0.898,2.747-0.972,4.228l-4.829,0.663
			l0.759,5.528l5.046-0.693c0.626,1.483,1.521,2.806,2.622,3.921l-3.179,4.191l4.445,3.372l3.447-4.543
			c1.14,0.41,2.348,0.657,3.595,0.719l0.663,4.829l5.528-0.759l-0.693-5.046c1.06-0.447,2.038-1.032,2.919-1.732l4.293,3.257
			l3.373-4.445l-4.166-3.16c0.59-1.212,0.977-2.527,1.151-3.898L414.183,224.724z M397.392,228.906
			c-2.794,0.383-5.379-1.578-5.763-4.372c-0.384-2.794,1.578-5.379,4.372-5.763c2.794-0.383,5.379,1.578,5.763,4.372
			C402.147,225.937,400.186,228.523,397.392,228.906z"/>
		<g>
			<g style="opacity:0.2;">
				<g>
					<path style="fill:#F7FFFF;" d="M133.016,145.366c-0.257,0-0.518-0.026-0.78-0.079l-4.432-0.894H91.516
						c-2.567,0-4.655-2.088-4.655-4.655v-18.255c0-2.567,2.088-4.655,4.655-4.655h38.102c2.567,0,4.655,2.088,4.655,4.655v14.972
						l1.936,3.068c0.826,1.31,0.794,2.917-0.085,4.192C135.396,144.771,134.25,145.366,133.016,145.366z M91.516,120.262
						c-0.673,0-1.221,0.548-1.221,1.221v18.255c0,0.673,0.548,1.221,1.221,1.221h36.631l4.768,0.961
						c0.16,0.032,0.288-0.02,0.381-0.154c0.093-0.135,0.096-0.273,0.008-0.411l-2.465-3.908v-15.965
						c0-0.673-0.548-1.221-1.221-1.221H91.516z"/>
				</g>
			</g>
			<path style="opacity:0.2;fill:#F7FFFF;" d="M126.393,126.277h-32.16c-0.464,0-0.843-0.379-0.843-0.843v-0.221
				c0-0.464,0.379-0.843,0.843-0.843h32.16c0.464,0,0.843,0.379,0.843,0.843v0.221C127.236,125.897,126.857,126.277,126.393,126.277
				z"/>
			<path style="opacity:0.2;fill:#F7FFFF;" d="M126.393,131.282h-32.16c-0.464,0-0.843-0.379-0.843-0.843v-0.221
				c0-0.464,0.379-0.843,0.843-0.843h32.16c0.464,0,0.843,0.379,0.843,0.843v0.221C127.236,130.903,126.857,131.282,126.393,131.282
				z"/>
			<path style="opacity:0.2;fill:#F7FFFF;" d="M108.931,136.288H94.233c-0.464,0-0.843-0.379-0.843-0.843v-0.221
				c0-0.464,0.379-0.843,0.843-0.843h14.698c0.464,0,0.843,0.379,0.843,0.843v0.221
				C109.774,135.908,109.395,136.288,108.931,136.288z"/>
		</g>
		<g>
			<g style="opacity:0.2;">
				<g>
					<path style="fill:#F7FFFF;" d="M369.49,286.483c-0.879-1.276-0.912-2.882-0.085-4.192l1.935-3.069V264.25
						c0-2.567,2.088-4.655,4.655-4.655h38.102c2.567,0,4.655,2.088,4.655,4.655v18.255c0,2.567-2.088,4.655-4.655,4.655h-36.288
						l-4.432,0.894c-0.262,0.053-0.522,0.079-0.78,0.079C371.363,288.133,370.218,287.538,369.49,286.483z M375.995,263.029
						c-0.673,0-1.221,0.548-1.221,1.221v15.965l-2.465,3.908c-0.087,0.138-0.084,0.277,0.008,0.411
						c0.093,0.135,0.221,0.186,0.381,0.154l4.768-0.961h36.631c0.673,0,1.221-0.548,1.221-1.221V264.25
						c0-0.673-0.548-1.221-1.221-1.221H375.995z"/>
				</g>
			</g>
			<path style="opacity:0.2;fill:#F7FFFF;" d="M379.22,269.043h32.16c0.464,0,0.843-0.379,0.843-0.843v-0.221
				c0-0.464-0.379-0.843-0.843-0.843h-32.16c-0.464,0-0.843,0.379-0.843,0.843v0.221
				C378.377,268.664,378.757,269.043,379.22,269.043z"/>
			<path style="opacity:0.2;fill:#F7FFFF;" d="M379.22,274.049h32.16c0.464,0,0.843-0.379,0.843-0.843v-0.221
				c0-0.464-0.379-0.843-0.843-0.843h-32.16c-0.464,0-0.843,0.379-0.843,0.843v0.221
				C378.377,273.669,378.757,274.049,379.22,274.049z"/>
			<path style="opacity:0.2;fill:#F7FFFF;" d="M379.225,279.054h14.698c0.464,0,0.843-0.379,0.843-0.843v-0.221
				c0-0.464-0.379-0.843-0.843-0.843h-14.698c-0.464,0-0.843,0.379-0.843,0.843v0.221
				C378.382,278.675,378.761,279.054,379.225,279.054z"/>
		</g>
		
			<ellipse transform="matrix(0.7071 -0.7071 0.7071 0.7071 -74.562 236.3486)" style="opacity:0.2;fill:#F7FFFF;" cx="248.017" cy="208.179" rx="96.948" ry="96.948"/>
	</g>
	<g>
		<ellipse style="opacity:0.2;" cx="249.76" cy="408.699" rx="138.453" ry="34.469"/>
		<path style="fill:#FDB661;" d="M179.132,287.413v110.482h-28.503v-81.979c0-12.115,7.56-22.467,18.219-26.589
			c1.655-0.643,3.388-1.135,5.176-1.455C175.682,287.569,177.389,287.413,179.132,287.413z"/>
		<path style="fill:#F28248;" d="M212.176,386.544v10.594h-61.547v-22.197l0,0c10.062,0,18.219-8.157,18.219-18.219v-67.374
			c1.655-0.651,3.388-1.15,5.176-1.476v87.069h5.108v11.603H212.176z"/>
		<path style="fill:#FDB661;" d="M348.891,315.916v81.979h-28.503V287.413c2.187,0,4.318,0.247,6.364,0.714
			c1.796,0.409,3.526,0.989,5.176,1.72c3.234,1.433,6.15,3.448,8.614,5.915C345.7,300.918,348.891,308.047,348.891,315.916z"/>
		<path style="fill:#F28248;" d="M348.891,374.941v22.197h-28.503v-22.197h6.927c-0.189-0.071-0.376-0.141-0.563-0.214v-86.6
			c1.796,0.409,3.526,0.989,5.176,1.72v68.131C331.928,367.346,339.522,374.941,348.891,374.941L348.891,374.941z"/>
		<g>
			<g>
				<path style="fill:#243343;" d="M326.694,134.068v245.827c0,9.926-8.074,18-18,18H192.024c-4.134,0-7.951-1.402-10.993-3.756
					c-4.26-3.294-7.007-8.455-7.007-14.244V134.068c0-9.926,8.074-18,18-18h116.669c4.169,0,8.011,1.423,11.066,3.811
					C323.977,123.176,326.694,128.309,326.694,134.068z"/>
				<path style="fill:#192130;" d="M321.649,134.068v245.827c0,7.126-5.829,12.955-12.955,12.955H192.024
					c-7.126,0-12.955-5.829-12.955-12.955V134.068c0-7.126,5.829-12.955,12.955-12.955h116.669
					C315.82,121.113,321.649,126.942,321.649,134.068z"/>
				<path style="fill:#243343;" d="M284.065,126.769c0,2.459-0.937,4.691-2.449,6.312c-1.512,1.621-3.594,2.626-5.888,2.626h-50.926
					c-4.585,0-8.337-4.022-8.337-8.938c0-2.459,0.937-4.691,2.449-6.312c0.09-0.097,0.18-0.188,0.275-0.28h62.152
					C283.013,121.812,284.065,124.165,284.065,126.769z"/>
				<g>
					<g>
						<defs>
							<path id="SVGID_00000004547297585036215420000013714917720031176888_" d="M316.769,300.443v7.117v45.352
								c0,1.656-0.786,3.134-2,4.09c-0.886,0.697-1.999,1.118-3.208,1.118H189.157c-2.864,0-5.207-2.343-5.207-5.208v-45.729
								v-13.674v-3.193V153.589c0-1.296,0.484-2.483,1.275-3.397c0.957-1.106,2.365-1.811,3.933-1.811h122.405
								c2.864,0,5.207,2.343,5.207,5.208v143.662V300.443z"/>
						</defs>
						<clipPath id="SVGID_00000098204949973254315620000011434201175721335701_">
							<use xlink:href="#SVGID_00000004547297585036215420000013714917720031176888_"  style="overflow:visible;"/>
						</clipPath>
					</g>
					<g>
						<defs>
							<path id="SVGID_00000038372409817941632500000000010292635884187032_" d="M316.769,300.443v7.117v45.352
								c0,1.656-0.786,3.134-2,4.09c-0.886,0.697-1.999,1.118-3.208,1.118H189.157c-2.864,0-5.207-2.343-5.207-5.208v-45.729
								v-13.674v-3.193V153.589c0-1.296,0.484-2.483,1.275-3.397c0.957-1.106,2.365-1.811,3.933-1.811h122.405
								c2.864,0,5.207,2.343,5.207,5.208v143.662V300.443z"/>
						</defs>
						<use xlink:href="#SVGID_00000038372409817941632500000000010292635884187032_"  style="overflow:visible;fill:#243343;"/>
						<clipPath id="SVGID_00000026158287707602859900000008874859702158110391_">
							<use xlink:href="#SVGID_00000038372409817941632500000000010292635884187032_"  style="overflow:visible;"/>
						</clipPath>
						<g style="clip-path:url(#SVGID_00000026158287707602859900000008874859702158110391_);">
							<g>
								<rect x="180.488" y="142.879" style="fill:#FFFFFF;" width="139.694" height="215.621"/>
							</g>
							<g>
								<rect x="180.53" y="147.419" style="fill:#0062AD;" width="139.694" height="19.423"/>
							</g>
						</g>
						<g style="clip-path:url(#SVGID_00000026158287707602859900000008874859702158110391_);">
							<path style="fill:#FFFFFF;" d="M251.008,160.788h-54.71c-1.533,0-2.788-1.255-2.788-2.788v-0.73
								c0-1.533,1.255-2.788,2.788-2.788h54.71c1.533,0,2.788,1.255,2.788,2.788V158
								C253.796,159.533,252.541,160.788,251.008,160.788z"/>
						</g>
						<polygon style="clip-path:url(#SVGID_00000026158287707602859900000008874859702158110391_);fill:#FFFFFF;" points="
							287.145,156.404 288.52,153.464 290.018,156.344 293.239,156.743 290.963,159.057 291.578,162.245 288.674,160.795 
							285.833,162.365 286.314,159.155 283.943,156.938 						"/>
						<path style="clip-path:url(#SVGID_00000026158287707602859900000008874859702158110391_);fill:#FFFFFF;" d="M305.253,155.238
							c0,0.557-0.452,1.009-1.009,1.009c-0.557,0-1.009-0.452-1.009-1.009c0-0.557,0.452-1.009,1.009-1.009
							C304.801,154.23,305.253,154.681,305.253,155.238z"/>
						<path style="clip-path:url(#SVGID_00000026158287707602859900000008874859702158110391_);fill:#FFFFFF;" d="M305.253,158.265
							c0,0.557-0.452,1.009-1.009,1.009c-0.557,0-1.009-0.452-1.009-1.009c0-0.557,0.452-1.009,1.009-1.009
							C304.801,157.256,305.253,157.708,305.253,158.265z"/>
						<path style="clip-path:url(#SVGID_00000026158287707602859900000008874859702158110391_);fill:#FFFFFF;" d="M305.253,161.544
							c0,0.557-0.452,1.009-1.009,1.009c-0.557,0-1.009-0.452-1.009-1.009c0-0.557,0.452-1.009,1.009-1.009
							C304.801,160.536,305.253,160.987,305.253,161.544z"/>
						<g style="clip-path:url(#SVGID_00000026158287707602859900000008874859702158110391_);">
							<path style="fill:#FFFFFF;" d="M272.395,153.006l-1.546,2.304l1.329,0.892c0.538,0.361,1.321,0.138,1.748-0.498l0,0
								c0.427-0.636,0.336-1.445-0.202-1.806L272.395,153.006z"/>
						</g>
						<g style="clip-path:url(#SVGID_00000026158287707602859900000008874859702158110391_);">
							<path style="fill:#FFFFFF;" d="M268.461,158.872l-1.546,2.304l1.329,0.892c0.538,0.361,1.321,0.138,1.748-0.498l0,0
								c0.427-0.636,0.336-1.445-0.202-1.806L268.461,158.872z"/>
						</g>
						<g style="clip-path:url(#SVGID_00000026158287707602859900000008874859702158110391_);">
							<path style="fill:#FFFFFF;" d="M268.735,161.938l0.866-1.538c0.291,0.156,1.85,0.851,3.21-1.176
								c1.182-1.762,0.007-3.02-0.131-3.158l1.229-1.268c0.841,0.807,2,2.977,0.369,5.409
								C272.409,162.993,269.835,162.557,268.735,161.938z"/>
						</g>
					</g>
					<g>
						<defs>
							<path id="SVGID_00000161595285875925815630000015053862969671998347_" d="M316.769,300.443v7.117v45.352
								c0,1.656-0.786,3.134-2,4.09c-0.886,0.697-1.999,1.118-3.208,1.118H189.157c-2.864,0-5.207-2.343-5.207-5.208v-45.729
								v-13.674v-3.193V153.589c0-1.296,0.484-2.483,1.275-3.397c0.957-1.106,2.365-1.811,3.933-1.811h122.405
								c2.864,0,5.207,2.343,5.207,5.208v143.662V300.443z"/>
						</defs>
						<clipPath id="SVGID_00000161602625575185922580000008821245066845491610_">
							<use xlink:href="#SVGID_00000161595285875925815630000015053862969671998347_"  style="overflow:visible;"/>
						</clipPath>
					</g>
				</g>
				<path style="fill:#243343;" d="M226.11,378.22h49.098c3.369,0,6.126-2.219,6.126-4.932l0,0c0-2.713-2.757-4.932-6.126-4.932
					H226.11c-3.369,0-6.126,2.219-6.126,4.932l0,0C219.984,376.001,222.741,378.22,226.11,378.22z"/>
				<path style="fill:#7A2B03;" d="M219.448,169.437c0.058-0.088,0.114-0.176,0.166-0.261c-0.101,0.154-0.198,0.307-0.295,0.463
					C219.36,169.571,219.403,169.506,219.448,169.437z"/>
				<path style="fill:#243343;" d="M295.416,129.636c0,1.463-1.186,2.648-2.649,2.648c-1.463,0-2.648-1.186-2.648-2.648
					c0-1.463,1.186-2.648,2.648-2.648C294.23,126.987,295.416,128.173,295.416,129.636z"/>
				<circle style="fill:#243343;" cx="301.596" cy="129.636" r="2.648"/>
				<path style="fill:#192130;" d="M274.966,129.51h-46.628c-0.981,0-1.784-0.803-1.784-1.784v-0.467
					c0-0.981,0.803-1.784,1.784-1.784h46.628c0.981,0,1.784,0.803,1.784,1.784v0.467C276.75,128.707,275.947,129.51,274.966,129.51z
					"/>
			</g>
			<path style="opacity:0.1;" d="M326.946,134.068v245.827c0,9.926-8.074,18-18,18H192.277c-4.134,0-7.951-1.402-10.993-3.756
				l2.341-4.626l134.041-265l2.346-4.634C324.229,123.176,326.946,128.309,326.946,134.068z"/>
		</g>
		<g>
			<path style="fill:#B9CAD4;" d="M303.212,238.329c-1.034,1.034-2.121,1.983-3.251,2.85c-5.35,4.099-11.684,6.311-18.096,6.636
				c-2.636,0.134-5.284-0.05-7.885-0.552c-0.969-0.187-1.93-0.421-2.881-0.696c-3.723-1.08-7.29-2.84-10.506-5.279
				c-1.183-0.893-2.318-1.882-3.398-2.959c-4.031-4.031-6.783-8.856-8.258-13.972c-0.285-0.991-0.522-1.993-0.711-3.002
				c-0.482-2.565-0.653-5.173-0.517-7.769c0.411-7.741,3.574-15.362,9.487-21.274c12.705-12.708,33.311-12.708,46.016,0
				C315.918,205.018,315.918,225.624,303.212,238.329z"/>
			<g>
				<rect x="254.634" y="189.783" style="fill:#406D81;" width="2.333" height="16.313"/>
				<path style="fill:#0CDCCF;" d="M258.437,189.784c0,1.457-1.181,2.637-2.638,2.637c-1.457,0-2.637-1.181-2.637-2.637
					s1.181-2.637,2.637-2.637C257.256,187.146,258.437,188.327,258.437,189.784z"/>
				<path style="fill:#284E5B;" d="M256.967,201.512v1.72c-0.59,0.174-1.541,0.454-2.333,0.694v-1.867
					C254.634,202.059,256.22,201.638,256.967,201.512z"/>
				<path style="fill:#0CDCCF;" d="M252.938,210.762c0,1.243-0.863,2.288-2.021,2.565c-0.197,0.048-0.404,0.073-0.615,0.073
					c-0.164,0-0.325-0.015-0.479-0.043c-1.228-0.227-2.159-1.304-2.159-2.596c0-1.281,0.913-2.348,2.124-2.588
					c0.166-0.033,0.338-0.051,0.514-0.051c0.212,0,0.419,0.025,0.615,0.073C252.076,208.474,252.938,209.516,252.938,210.762z"/>
				<path style="fill:#406D81;" d="M271.764,210.762c0,2.116-0.865,4.041-2.26,5.433c-1.392,1.395-3.317,2.26-5.433,2.26h-6.536
					c-0.456,0-0.903-0.04-1.337-0.118c-3.6-0.636-6.357-3.799-6.357-7.575c0-2.116,0.865-4.041,2.26-5.433
					c1.039-1.039,2.371-1.783,3.857-2.096c0.51-0.109,1.037-0.164,1.576-0.164h6.536
					C268.303,203.068,271.764,206.529,271.764,210.762z"/>
				<path style="fill:#284E5B;" d="M260.15,218.077c-0.013,0.134-0.025,0.26-0.043,0.378h-2.573c-0.456,0-0.903-0.04-1.337-0.118
					c-1.039-1.536-2.294-4.25-2.574-7.575c-0.333-3.935,1.363-6.5,2.334-7.529c0.51-0.109,1.037-0.164,1.576-0.164h2.084
					C261.318,206.196,260.38,215.406,260.15,218.077z"/>
				<rect x="304.322" y="189.783" style="fill:#406D81;" width="2.333" height="16.313"/>
				<path style="fill:#0CDCCF;" d="M302.851,189.784c0,1.457,1.181,2.637,2.637,2.637c1.457,0,2.637-1.181,2.637-2.637
					s-1.181-2.637-2.637-2.637C304.032,187.146,302.851,188.327,302.851,189.784z"/>
				<path style="fill:#284E5B;" d="M304.322,201.512v1.72c0.59,0.174,1.541,0.454,2.333,0.694v-1.867
					C306.655,202.059,305.068,201.638,304.322,201.512z"/>
				<path style="fill:#0CDCCF;" d="M308.349,210.762c0,1.457,1.181,2.637,2.637,2.637s2.637-1.181,2.637-2.637
					s-1.181-2.637-2.637-2.637S308.349,209.305,308.349,210.762z"/>
				<path style="fill:#406D81;" d="M289.525,210.762c0,2.116,0.865,4.041,2.26,5.433c1.392,1.395,3.317,2.26,5.433,2.26h6.535
					c0.457,0,0.903-0.04,1.337-0.118c3.599-0.636,6.357-3.799,6.357-7.575c0-2.116-0.865-4.041-2.26-5.433
					c-1.039-1.039-2.371-1.783-3.857-2.096c-0.51-0.109-1.037-0.164-1.577-0.164h-6.535
					C292.986,203.068,289.525,206.529,289.525,210.762z"/>
				<path style="fill:#284E5B;" d="M301.138,218.077c0.013,0.134,0.025,0.26,0.043,0.378h2.573c0.457,0,0.903-0.04,1.337-0.118
					c1.039-1.536,2.294-4.25,2.574-7.575c0.333-3.935-1.363-6.5-2.335-7.529c-0.51-0.109-1.037-0.164-1.577-0.164h-2.083
					C299.97,206.196,300.909,215.406,301.138,218.077z"/>
				<path style="fill:#5B879A;" d="M305.311,210.159c0,1.112-0.121,2.197-0.353,3.241c0,0,0,0.003-0.003,0.008
					c-0.631,2.853-2.076,5.408-4.076,7.408c-2.734,2.734-6.505,4.432-10.655,4.432h-19.337c-7.186,0-13.243-5.093-14.736-11.848
					c-0.232-1.044-0.353-2.129-0.353-3.241c0-2.621,0.676-5.09,1.867-7.242c0.691-1.256,1.556-2.404,2.565-3.413
					c2.737-2.734,6.508-4.432,10.657-4.432h19.337c5.595,0,10.503,3.085,13.107,7.64c0.003,0.003,0.005,0.005,0.005,0.005
					C304.592,204.917,305.311,207.458,305.311,210.159z"/>
				<path style="fill:#406D81;" d="M293.038,214.84h-25.581c-2.862,0-5.204-2.342-5.204-5.204v-1.364
					c0-2.862,2.342-5.204,5.204-5.204h25.581c2.862,0,5.204,2.342,5.204,5.204v1.364C298.241,212.498,295.9,214.84,293.038,214.84z"
					/>
				<path style="fill:#284E5B;" d="M268.139,213.326c-2.411,0-4.372-1.961-4.372-4.372c0-2.411,1.961-4.372,4.372-4.372h24.217
					c2.411,0,4.372,1.961,4.372,4.372c0,2.411-1.961,4.372-4.372,4.372H268.139z"/>
				<g>
					<path style="fill:#0CDCCF;" d="M271.755,210.818c-1.031,1.031-2.7,1.031-3.73,0.002c-1.031-1.031-1.031-2.7,0-3.731
						c1.029-1.029,2.699-1.029,3.73,0.002C272.784,208.12,272.784,209.789,271.755,210.818z"/>
					<path style="fill:#0CC3D0;" d="M271.755,210.818c-1.031,1.031-2.7,1.031-3.73,0.002l3.73-3.73
						C272.784,208.12,272.784,209.789,271.755,210.818z"/>
				</g>
				<g>
					<path style="fill:#0CDCCF;" d="M293.088,210.818c-1.031,1.031-2.7,1.031-3.73,0.002c-1.031-1.031-1.031-2.7,0-3.731
						c1.029-1.029,2.699-1.029,3.73,0.002C294.117,208.12,294.117,209.789,293.088,210.818z"/>
					<path style="fill:#0CC3D0;" d="M293.088,210.818c-1.031,1.031-2.7,1.031-3.73,0.002l3.73-3.73
						C294.117,208.12,294.117,209.789,293.088,210.818z"/>
				</g>
				<path style="fill:#406D81;" d="M288.144,221.356h-16.411c-1.165,0-2.119-0.953-2.119-2.119v-0.555
					c0-1.165,0.953-2.119,2.119-2.119h16.411c1.165,0,2.119,0.953,2.119,2.119v0.555
					C290.263,220.402,289.309,221.356,288.144,221.356z"/>
				<path style="fill:#E3E3E3;" d="M288.586,218.96c0,0.076-0.008,0.149-0.02,0.222c-0.045,0.257-0.172,0.489-0.351,0.668
					c-0.227,0.229-0.545,0.371-0.891,0.371h-14.771c-0.618,0-1.135-0.451-1.241-1.039c-0.013-0.073-0.02-0.146-0.02-0.222
					c0-0.348,0.141-0.661,0.371-0.89c0.227-0.23,0.545-0.371,0.89-0.371h14.771C288.018,217.698,288.586,218.266,288.586,218.96z"/>
				<path style="fill:#F7FFFF;" d="M288.565,219.182c-0.045,0.257-0.172,0.489-0.351,0.668c-0.227,0.229-0.545,0.371-0.891,0.371
					h-14.771c-0.618,0-1.135-0.451-1.241-1.039c0.045-0.26,0.172-0.494,0.351-0.671c0.227-0.23,0.545-0.371,0.89-0.371h14.771
					C287.942,218.14,288.462,218.591,288.565,219.182z"/>
				<path style="fill:#406D81;" d="M287.541,227.491c0,0.068-0.003,0.139-0.01,0.204c-0.048,0.535-0.288,1.019-0.648,1.38
					c-0.406,0.406-0.966,0.658-1.584,0.658H275.11c-1.163,0-2.131-0.898-2.235-2.038c-0.008-0.066-0.01-0.136-0.01-0.204
					c0-0.615,0.252-1.178,0.661-1.584c0.406-0.406,0.969-0.658,1.584-0.658h10.188C286.532,225.248,287.541,226.257,287.541,227.491
					z"/>
				<path style="fill:#406D81;" d="M285.557,234.22H274.85c-1.091,0-1.983-0.892-1.983-1.983v-0.52c0-1.091,0.892-1.983,1.983-1.983
					h10.708c1.091,0,1.983,0.893,1.983,1.983v0.52C287.541,233.328,286.648,234.22,285.557,234.22z"/>
				<path style="fill:#406D81;" d="M299.961,241.18c-5.35,4.099-11.684,6.311-18.096,6.636c-2.636,0.134-5.284-0.05-7.885-0.552
					c-0.969-0.187-1.93-0.421-2.881-0.696c-3.723-1.08-7.29-2.84-10.506-5.279c0.28-0.87,0.671-1.688,1.163-2.437v-0.003
					c1.821-2.787,4.969-4.629,8.546-4.629h19.983c3.579,0,6.727,1.841,8.548,4.631C299.303,239.568,299.684,240.35,299.961,241.18z"
					/>
				<path style="fill:#284E5B;" d="M287.541,227.491v0.204h-14.675v-0.204c0-0.615,0.252-1.178,0.661-1.584
					c0.406-0.406,0.969-0.658,1.584-0.658h10.188C286.532,225.248,287.541,226.257,287.541,227.491z"/>
				<path style="fill:#284E5B;" d="M287.541,231.977v0.204h-14.675v-0.204c0-0.615,0.252-1.178,0.661-1.584
					c0.406-0.406,0.969-0.658,1.584-0.658h10.188C286.532,229.734,287.541,230.743,287.541,231.977z"/>
				<path style="fill:#406D81;" d="M304.956,213.408c-0.631,2.853-2.076,5.408-4.076,7.408c-2.734,2.734-6.505,4.432-10.655,4.432
					h-19.337c-7.186,0-13.243-5.093-14.736-11.848h0.003c0,0,1.295,11.077,23.784,11.077
					C302.133,224.478,304.814,213.718,304.956,213.408z"/>
				<path style="fill:#406D81;" d="M303.331,202.713c-0.209-0.209-7.045-6.947-23.393-6.947c-15.19,0-21.337,6.112-22.273,7.151
					c0.691-1.256,1.556-2.404,2.565-3.413c2.737-2.734,6.508-4.432,10.657-4.432h19.337
					C295.819,195.072,300.728,198.157,303.331,202.713z"/>
			</g>
		</g>
		<rect x="150.629" y="386.544" style="fill:#FDB661;" width="198.262" height="24.468"/>
		<rect x="150.629" y="411.012" style="fill:#192130;" width="198.262" height="7.567"/>
		<rect x="150.629" y="398.652" style="fill:#F28248;" width="198.262" height="12.36"/>
		<g>
			<path style="opacity:0.28;fill:#03283B;" d="M367.079,263.78v34.445c0,3.061-3.112,5.544-6.953,5.544h-86.287l-22.213,3.571
				l11.372-14.374V263.78c0-3.063,3.115-5.544,6.953-5.544h90.174C363.967,258.236,367.079,260.717,367.079,263.78z"/>
			<g>
				<path style="fill:#0CDCCF;" d="M367.079,262.135v32.023c0,2.846-3.112,5.154-6.953,5.154h-86.287l-22.213,3.32l11.372-13.363
					v-27.134c0-2.847,3.115-5.154,6.953-5.154h90.174C363.967,256.981,367.079,259.288,367.079,262.135z"/>
				<path style="fill:#00A9AF;" d="M306.358,269.756h-30.132c-0.918,0-1.67-0.751-1.67-1.67v-0.438c0-0.918,0.751-1.67,1.67-1.67
					h30.132c0.918,0,1.67,0.751,1.67,1.67v0.438C308.028,269.005,307.276,269.756,306.358,269.756z"/>
				<path style="fill:#00A9AF;" d="M322.375,276.726h-46.149c-0.918,0-1.67-0.751-1.67-1.67v-0.438c0-0.918,0.751-1.67,1.67-1.67
					h46.149c0.919,0,1.67,0.751,1.67,1.67v0.438C324.045,275.975,323.294,276.726,322.375,276.726z"/>
				<path style="fill:#00A9AF;" d="M342.401,269.756h-30.132c-0.918,0-1.67-0.751-1.67-1.67v-0.438c0-0.918,0.751-1.67,1.67-1.67
					h30.132c0.918,0,1.67,0.751,1.67,1.67v0.438C344.07,269.005,343.319,269.756,342.401,269.756z"/>
				<path style="fill:#00A9AF;" d="M357.787,276.726h-30.132c-0.918,0-1.67-0.751-1.67-1.67v-0.438c0-0.918,0.751-1.67,1.67-1.67
					h30.132c0.918,0,1.67,0.751,1.67,1.67v0.438C359.457,275.975,358.706,276.726,357.787,276.726z"/>
				<path style="fill:#00A9AF;" d="M357.787,283.696h-32.072c-0.918,0-1.67-0.751-1.67-1.67v-0.438c0-0.918,0.751-1.67,1.67-1.67
					h32.072c0.918,0,1.67,0.751,1.67,1.67v0.438C359.457,282.944,358.706,283.696,357.787,283.696z"/>
				<path style="fill:#00A9AF;" d="M306.358,283.696h-30.132c-0.918,0-1.67-0.751-1.67-1.67v-0.438c0-0.918,0.751-1.67,1.67-1.67
					h30.132c0.918,0,1.67,0.751,1.67,1.67v0.438C308.028,282.944,307.276,283.696,306.358,283.696z"/>
				<path style="fill:#00A9AF;" d="M306.358,290.723h-30.132c-0.918,0-1.67-0.751-1.67-1.67v-0.438c0-0.918,0.751-1.67,1.67-1.67
					h30.132c0.918,0,1.67,0.751,1.67,1.67v0.438C308.028,289.971,307.276,290.723,306.358,290.723z"/>
				<path style="fill:#00A9AF;" d="M357.787,269.756h-8.411c-0.918,0-1.67-0.751-1.67-1.67v-0.438c0-0.918,0.751-1.67,1.67-1.67
					h8.411c0.918,0,1.67,0.751,1.67,1.67v0.438C359.457,269.005,358.706,269.756,357.787,269.756z"/>
				<path style="fill:#00A9AF;" d="M320.68,283.696h-8.411c-0.918,0-1.67-0.751-1.67-1.67v-0.438c0-0.918,0.751-1.67,1.67-1.67
					h8.411c0.918,0,1.67,0.751,1.67,1.67v0.438C322.35,282.944,321.598,283.696,320.68,283.696z"/>
			</g>
		</g>
		<g>
			<path style="opacity:0.28;fill:#03283B;" d="M135.849,179.202v34.445c0,3.061,3.112,5.544,6.953,5.544h86.287l22.213,3.571
				l-11.372-14.374v-29.186c0-3.063-3.115-5.544-6.954-5.544h-90.174C138.961,173.658,135.849,176.139,135.849,179.202z"/>
			<g>
				<path style="fill:#FDB661;" d="M135.849,177.557v32.023c0,2.845,3.112,5.154,6.953,5.154h86.287l22.213,3.32l-11.372-13.363
					v-27.134c0-2.847-3.115-5.154-6.954-5.154h-90.174C138.961,172.403,135.849,174.71,135.849,177.557z"/>
				<path style="fill:#F28248;" d="M196.57,185.178h30.132c0.918,0,1.67-0.751,1.67-1.67v-0.438c0-0.918-0.751-1.67-1.67-1.67
					H196.57c-0.918,0-1.67,0.751-1.67,1.67v0.438C194.901,184.427,195.652,185.178,196.57,185.178z"/>
				<path style="fill:#F28248;" d="M180.553,192.148h46.149c0.918,0,1.67-0.751,1.67-1.67v-0.438c0-0.918-0.751-1.67-1.67-1.67
					h-46.149c-0.918,0-1.67,0.751-1.67,1.67v0.438C178.883,191.396,179.635,192.148,180.553,192.148z"/>
				<path style="fill:#F28248;" d="M160.528,185.178h30.132c0.918,0,1.67-0.751,1.67-1.67v-0.438c0-0.918-0.752-1.67-1.67-1.67
					h-30.132c-0.918,0-1.67,0.751-1.67,1.67v0.438C158.858,184.427,159.61,185.178,160.528,185.178z"/>
				<path style="fill:#F28248;" d="M145.141,192.148h30.132c0.918,0,1.67-0.751,1.67-1.67v-0.438c0-0.918-0.751-1.67-1.67-1.67
					h-30.132c-0.918,0-1.67,0.751-1.67,1.67v0.438C143.471,191.396,144.223,192.148,145.141,192.148z"/>
				<path style="fill:#F28248;" d="M145.141,199.118h32.072c0.918,0,1.67-0.751,1.67-1.67v-0.438c0-0.919-0.751-1.67-1.67-1.67
					h-32.072c-0.918,0-1.67,0.751-1.67,1.67v0.438C143.471,198.366,144.223,199.118,145.141,199.118z"/>
				<path style="fill:#F28248;" d="M196.57,199.118h30.132c0.918,0,1.67-0.751,1.67-1.67v-0.438c0-0.919-0.751-1.67-1.67-1.67
					H196.57c-0.918,0-1.67,0.751-1.67,1.67v0.438C194.901,198.366,195.652,199.118,196.57,199.118z"/>
				<path style="fill:#F28248;" d="M145.141,206.145h30.132c0.918,0,1.67-0.751,1.67-1.67v-0.438c0-0.918-0.751-1.67-1.67-1.67
					h-30.132c-0.918,0-1.67,0.752-1.67,1.67v0.438C143.471,205.393,144.223,206.145,145.141,206.145z"/>
				<path style="fill:#F28248;" d="M145.141,185.178h8.411c0.918,0,1.67-0.751,1.67-1.67v-0.438c0-0.918-0.751-1.67-1.67-1.67
					h-8.411c-0.918,0-1.67,0.751-1.67,1.67v0.438C143.471,184.427,144.223,185.178,145.141,185.178z"/>
				<path style="fill:#F28248;" d="M182.249,199.118h8.411c0.918,0,1.67-0.751,1.67-1.67v-0.438c0-0.919-0.752-1.67-1.67-1.67
					h-8.411c-0.918,0-1.67,0.751-1.67,1.67v0.438C180.579,198.366,181.33,199.118,182.249,199.118z"/>
			</g>
		</g>
		<g>
			<path style="fill:#B9CAD4;" d="M244.013,343.466c-5.93,5.93-13.58,9.093-21.348,9.487c-2.634,0.134-5.283-0.05-7.884-0.553
				c-0.968-0.187-1.93-0.421-2.88-0.697c-5.09-1.477-9.892-4.224-13.905-8.237c-4.031-4.031-6.783-8.856-8.256-13.971
				c-0.285-0.992-0.524-1.994-0.713-3.004c-0.48-2.563-0.653-5.173-0.516-7.768c0.41-7.741,3.573-15.362,9.485-21.275
				c12.706-12.706,33.311-12.706,46.017,0C256.72,310.155,256.72,330.759,244.013,343.466z"/>
			<path style="opacity:0.1;" d="M244.013,343.466c-5.93,5.93-13.58,9.093-21.348,9.487c-2.634,0.134-5.283-0.05-7.884-0.553
				c-0.968-0.187-1.93-0.421-2.88-0.697c-5.09-1.477-9.892-4.224-13.905-8.237l46.017-46.017
				C256.72,310.155,256.72,330.759,244.013,343.466z"/>
			<g>
				<path style="fill:#FBAA7F;" d="M235.833,302.448c0,0,1.674-2.32,5.299-1.16c3.626,1.16,1.391,12.911-5.323,13.924
					L235.833,302.448z"/>
				<path style="fill:#D77A61;" d="M237.338,305.533c0,0,0.857-2.141,2.655-2.056c1.799,0.086,1.199,5.31-2.655,8.223V305.533z"/>
			</g>
			<g>
				<path style="fill:#FBAA7F;" d="M205.175,302.448c0,0-1.674-2.32-5.299-1.16c-3.626,1.16-1.391,12.911,5.323,13.924
					L205.175,302.448z"/>
				<path style="fill:#D77A61;" d="M203.67,305.533c0,0-0.857-2.141-2.655-2.056c-1.799,0.086-1.199,5.31,2.655,8.223V305.533z"/>
			</g>
			<path style="fill:#0CDCCF;" d="M239.191,338.081v9.363c-0.817,0.552-1.662,1.067-2.53,1.544
				c-4.644,2.555-9.981,4.008-15.657,4.008c-5.701,0-11.058-1.466-15.717-4.041c-0.903-0.499-1.781-1.039-2.628-1.619v-9.255
				c0-2.033,0.52-3.791,1.481-4.621c0.373-0.325,0.812-0.51,1.314-0.515c0.003,0.003,0.003,0.003,0.005,0h30.912
				c0.028,0,0.053,0,0.081,0.005c0.061,0,0.119,0.005,0.177,0.015c0.002,0,0.002,0,0.002,0c0.255,0.035,0.494,0.124,0.716,0.26
				C238.49,333.919,239.191,335.828,239.191,338.081z"/>
			<path style="fill:#0FA5B3;" d="M212.641,332.945c0,0,1.301,5.925,7.859,5.925c8.198,0,8.114-5.946,8.114-5.946L212.641,332.945z"
				/>
			<path style="fill:#DC8664;" d="M225.722,334.273c0,3.445-9.617,3.445-9.617,0v-9.617h9.617V334.273z"/>
			<path style="fill:#0CDCCF;" d="M205.539,348.496c-0.086,0.151-0.169,0.305-0.252,0.459c-0.903-0.499-1.781-1.039-2.628-1.619
				c-2.152-1.473-4.119-3.196-5.857-5.128c2.807-5.673,5.703-7.895,7.338-8.748c0.726-0.381,1.206-0.492,1.314-0.515
				c0.003,0.003,0.003,0.003,0.005,0c0.013-0.003,0.02-0.003,0.02-0.003v0.003L205.539,348.496z"/>
			<path style="fill:#0CDCCF;" d="M245.157,342.26c-1.768,1.957-3.771,3.7-5.965,5.184c-0.817,0.552-1.662,1.067-2.53,1.544
				c-0.088-0.166-0.179-0.33-0.27-0.494l0.061-15.543v-0.025c0,0,0.061,0.01,0.177,0.04c0.002,0,0.002,0,0.002,0
				c0.151,0.043,0.396,0.121,0.716,0.26C238.861,333.894,242.067,335.975,245.157,342.26z"/>
			<g>
				<path style="fill:none;" d="M220.913,327.732c-0.333,0-0.663-0.01-0.992-0.029C220.284,327.751,220.618,327.761,220.913,327.732
					z"/>
				<path style="fill:#FBAA7F;" d="M238.613,295.298v14.734c0,4.867-1.992,9.292-5.199,12.5c-3.208,3.207-7.633,5.199-12.5,5.199
					c-0.333,0-0.663-0.011-0.993-0.028c-9.277-0.52-16.708-8.27-16.708-17.671v-14.734c0-4.246,1.516-8.155,4.032-11.213
					c3.254-3.954,8.179-6.486,13.669-6.486C230.648,277.599,238.613,285.563,238.613,295.298z"/>
			</g>
			<path style="fill:#512121;" d="M204.234,289.394c0,0-1.735,2.075-1.02,14.882l0,0c2.176-3.416,3.41-7.346,3.578-11.392
				l0.014-0.335c0,0,4.193-2.71,3.764-6.107C210.57,286.442,205.273,285.74,204.234,289.394z"/>
			<path style="fill:#512121;" d="M237.615,288.808c0,0,1.735,2.075,1.02,14.882l0,0c-2.176-3.415-3.41-7.346-3.578-11.392
				l-0.014-0.335c0,0-4.193-2.71-3.764-6.107C231.279,285.855,236.576,285.154,237.615,288.808z"/>
			<path style="fill:#03283B;" d="M213.031,305.808L213.031,305.808c-1.003,0-1.824-0.821-1.824-1.824v-1.848
				c0-1.003,0.821-1.824,1.824-1.824l0,0c1.003,0,1.824,0.821,1.824,1.824v1.848C214.855,304.987,214.034,305.808,213.031,305.808z"
				/>
			<path style="fill:#03283B;" d="M228.943,305.808L228.943,305.808c-1.003,0-1.824-0.821-1.824-1.824v-1.848
				c0-1.003,0.821-1.824,1.824-1.824l0,0c1.003,0,1.824,0.821,1.824,1.824v1.848C230.767,304.987,229.946,305.808,228.943,305.808z"
				/>
			<path style="fill:#512121;" d="M208.658,296.345c0.824-0.633,2.714-1.818,5.198-1.7c0.621,0.03,1.103,0.555,1.085,1.177l0,0
				c-0.016,0.542-0.409,0.997-0.943,1.092c-1.095,0.194-2.947,0.584-4.273,1.191c-0.646,0.296-1.391-0.126-1.464-0.832l0,0
				C208.224,296.915,208.373,296.564,208.658,296.345z"/>
			<path style="fill:#512121;" d="M233.019,296.345c-0.824-0.633-2.714-1.818-5.197-1.7c-0.621,0.03-1.103,0.555-1.085,1.177l0,0
				c0.016,0.542,0.409,0.997,0.943,1.092c1.095,0.194,2.947,0.584,4.273,1.191c0.646,0.296,1.391-0.126,1.464-0.832l0,0
				C233.454,296.915,233.304,296.564,233.019,296.345z"/>
			<g>
				<path style="fill:#FFFFFF;" d="M212.482,311.1c0,0.645,0.075,1.272,0.212,1.875h16.439c0.137-0.603,0.212-1.23,0.212-1.875
					H212.482z"/>
				<g>
					<path style="fill:#03283B;" d="M227.045,316.884c1.014-1.075,1.749-2.416,2.088-3.908h-16.439
						c0.342,1.503,1.085,2.853,2.11,3.932C216.336,316.203,221.296,314.367,227.045,316.884z"/>
					<path style="fill:#FD3451;" d="M220.913,319.532c2.417,0,4.595-1.018,6.132-2.648c-5.748-2.517-10.709-0.681-12.241,0.024
						C216.339,318.524,218.508,319.532,220.913,319.532z"/>
				</g>
			</g>
			<path style="fill:#D77A61;" d="M218.325,307.886c0,0,0.704-1.564,2.697-1.446c1.994,0.117,2.502,1.446,2.502,1.446H218.325z"/>
			<path style="fill:#763434;" d="M238.361,279.778c0,0.005,0,0.01-0.003,0.015c-0.24,2.154-0.976,4.684-2.472,7.62
				c0,0-6.558,3.784-12.864,0c-6.306-3.784-19.352,3.9-19.352,3.9s-2.987-8.672,3.145-13.457l0.003-0.005h0.003
				c0.6-0.469,1.289-0.9,2.076-1.284c8.828-4.288,15.639-3.784,18.161-6.558c0,0,1.009,1.009,0,3.784c0,0,3.531-2.775,3.027-5.549
				c0,0,3.279,1.513,1.261,6.558c0,0,3.531-1.766,3.027-5.297C234.373,269.504,239.173,272.503,238.361,279.778z"/>
			<polygon style="fill:#652929;" points="206.821,277.851 206.816,277.856 206.818,277.851 			"/>
			<path style="fill:#512121;" d="M238.359,279.793c-0.24,2.154-0.976,4.684-2.472,7.62c0,0-6.558,3.784-12.864,0
				c-6.306-3.784-19.352,3.9-19.352,3.9s-2.987-8.672,3.145-13.457c-0.116,0.154-2.666,3.562-0.694,6.026
				c2.018,2.522,8.576-3.531,16.396-0.505C230.33,286.402,237.794,284.757,238.359,279.793z"/>
			<circle style="fill:#0FA5B3;" cx="221.005" cy="342.304" r="1.347"/>
			<circle style="fill:#0FA5B3;" cx="221.005" cy="346.924" r="1.347"/>
		</g>
		<path d="M261.757,238.851"/>
	</g>
</g>
<g id="DESIGNED_BY_FREEPIK">
	<g>
		<g>
			<g>
				<path style="fill:#FFFFFF;" d="M180.308,472.293v-0.161c-0.218,0.249-0.433,0.452-0.644,0.608
					c-0.212,0.156-0.441,0.275-0.689,0.357c-0.247,0.082-0.517,0.122-0.81,0.122c-0.388,0-0.747-0.082-1.078-0.246
					c-0.33-0.164-0.616-0.399-0.857-0.704c-0.242-0.305-0.425-0.662-0.549-1.074s-0.187-0.856-0.187-1.335
					c0-1.014,0.247-1.804,0.742-2.37c0.495-0.564,1.145-0.848,1.953-0.848c0.467,0,0.861,0.08,1.181,0.239
					c0.321,0.161,0.633,0.408,0.938,0.739v-2.392c0-0.333,0.066-0.584,0.199-0.754c0.132-0.17,0.321-0.255,0.566-0.255
					c0.246,0,0.434,0.078,0.567,0.234c0.133,0.156,0.199,0.386,0.199,0.691v7.147c0,0.309-0.071,0.54-0.213,0.694
					c-0.143,0.153-0.326,0.232-0.552,0.232c-0.222,0-0.404-0.08-0.549-0.24C180.38,472.817,180.308,472.589,180.308,472.293z
					 M177.12,469.912c0,0.439,0.068,0.813,0.205,1.122c0.137,0.309,0.323,0.541,0.561,0.696c0.237,0.157,0.497,0.236,0.777,0.236
					c0.285,0,0.545-0.075,0.781-0.224c0.235-0.147,0.423-0.376,0.564-0.682c0.141-0.308,0.21-0.691,0.21-1.149
					c0-0.432-0.07-0.803-0.21-1.114c-0.141-0.31-0.33-0.547-0.57-0.712c-0.24-0.164-0.502-0.245-0.787-0.245
					c-0.296,0-0.562,0.084-0.795,0.252c-0.233,0.168-0.415,0.409-0.543,0.724C177.184,469.132,177.12,469.496,177.12,469.912z"/>
				<path style="fill:#FFFFFF;" d="M187.454,470.322h-3.169c0.004,0.367,0.078,0.692,0.223,0.973
					c0.144,0.281,0.337,0.493,0.576,0.636c0.24,0.143,0.504,0.213,0.793,0.213c0.194,0,0.371-0.022,0.531-0.067
					c0.161-0.046,0.315-0.116,0.466-0.214c0.15-0.097,0.288-0.201,0.415-0.311c0.126-0.111,0.29-0.263,0.492-0.452
					c0.083-0.071,0.202-0.106,0.357-0.106c0.166,0,0.3,0.046,0.403,0.137c0.103,0.092,0.155,0.22,0.155,0.386
					c0,0.147-0.058,0.317-0.172,0.514c-0.116,0.195-0.288,0.384-0.52,0.564c-0.232,0.181-0.522,0.329-0.873,0.448
					c-0.35,0.119-0.753,0.179-1.208,0.179c-1.041,0-1.85-0.298-2.428-0.891c-0.578-0.594-0.866-1.399-0.866-2.416
					c0-0.48,0.071-0.924,0.213-1.332c0.143-0.41,0.351-0.762,0.623-1.055c0.273-0.293,0.609-0.517,1.009-0.674
					c0.399-0.156,0.843-0.233,1.33-0.233c0.633,0,1.176,0.132,1.629,0.4c0.454,0.267,0.794,0.612,1.019,1.035
					c0.225,0.424,0.338,0.855,0.338,1.294c0,0.408-0.117,0.672-0.35,0.793C188.206,470.261,187.877,470.322,187.454,470.322z
					 M184.284,469.401h2.938c-0.039-0.554-0.189-0.969-0.448-1.243c-0.26-0.275-0.6-0.413-1.024-0.413
					c-0.404,0-0.735,0.14-0.994,0.418C184.497,468.442,184.34,468.855,184.284,469.401z"/>
				<path style="fill:#FFFFFF;" d="M194.838,471.099c0,0.447-0.108,0.831-0.327,1.149c-0.217,0.318-0.538,0.561-0.964,0.725
					c-0.425,0.164-0.943,0.246-1.552,0.246c-0.582,0-1.08-0.09-1.496-0.268c-0.415-0.178-0.722-0.401-0.919-0.667
					c-0.198-0.269-0.297-0.535-0.297-0.806c0-0.178,0.063-0.33,0.191-0.456c0.126-0.126,0.287-0.19,0.481-0.19
					c0.17,0,0.3,0.042,0.391,0.125c0.091,0.083,0.179,0.2,0.261,0.35c0.166,0.29,0.366,0.504,0.597,0.647
					c0.232,0.143,0.547,0.214,0.947,0.214c0.324,0,0.59-0.072,0.798-0.217c0.208-0.146,0.311-0.31,0.311-0.496
					c0-0.285-0.107-0.492-0.323-0.623c-0.216-0.13-0.571-0.256-1.065-0.374c-0.558-0.139-1.012-0.284-1.362-0.436
					c-0.351-0.151-0.63-0.354-0.84-0.602c-0.21-0.25-0.314-0.557-0.314-0.921c0-0.324,0.097-0.631,0.291-0.92
					c0.194-0.288,0.48-0.52,0.858-0.691c0.377-0.173,0.833-0.259,1.368-0.259c0.42,0,0.796,0.043,1.13,0.131
					c0.335,0.087,0.614,0.204,0.837,0.351c0.224,0.146,0.393,0.309,0.51,0.486c0.117,0.178,0.175,0.352,0.175,0.522
					c0,0.186-0.062,0.339-0.186,0.457c-0.124,0.118-0.301,0.179-0.531,0.179c-0.167,0-0.308-0.048-0.424-0.144
					c-0.117-0.095-0.251-0.236-0.401-0.427c-0.123-0.158-0.266-0.285-0.433-0.38c-0.166-0.096-0.392-0.143-0.677-0.143
					c-0.293,0-0.536,0.061-0.73,0.188c-0.193,0.124-0.29,0.279-0.29,0.465c0,0.171,0.071,0.31,0.213,0.419
					c0.143,0.109,0.335,0.2,0.576,0.271c0.242,0.07,0.573,0.157,0.997,0.261c0.502,0.123,0.913,0.27,1.232,0.44
					c0.318,0.17,0.559,0.371,0.725,0.603C194.756,470.538,194.838,470.802,194.838,471.099z"/>
				<path style="fill:#FFFFFF;" d="M196.494,465.876c-0.226,0-0.419-0.069-0.579-0.208c-0.16-0.139-0.241-0.334-0.241-0.588
					c0-0.23,0.083-0.418,0.247-0.567c0.164-0.148,0.355-0.223,0.573-0.223c0.21,0,0.396,0.067,0.558,0.202
					c0.163,0.135,0.244,0.33,0.244,0.588c0,0.249-0.08,0.444-0.238,0.585C196.899,465.805,196.711,465.876,196.494,465.876z
					 M197.295,467.55v4.683c0,0.325-0.077,0.571-0.232,0.737c-0.155,0.165-0.35,0.249-0.587,0.249c-0.238,0-0.431-0.085-0.579-0.256
					c-0.149-0.17-0.223-0.413-0.223-0.73v-4.636c0-0.32,0.074-0.562,0.223-0.725c0.148-0.162,0.341-0.243,0.579-0.243
					c0.237,0,0.433,0.081,0.587,0.243C197.218,467.035,197.295,467.261,197.295,467.55z"/>
				<path style="fill:#FFFFFF;" d="M204.394,467.816v4.707c0,0.539-0.058,1.002-0.173,1.39c-0.114,0.388-0.298,0.708-0.552,0.962
					c-0.253,0.253-0.585,0.441-0.994,0.564c-0.41,0.123-0.919,0.184-1.529,0.184c-0.558,0-1.057-0.078-1.496-0.233
					c-0.439-0.157-0.777-0.359-1.015-0.607c-0.237-0.247-0.356-0.501-0.356-0.763c0-0.197,0.067-0.359,0.203-0.483
					c0.134-0.125,0.297-0.188,0.486-0.188c0.237,0,0.445,0.105,0.624,0.314c0.086,0.107,0.177,0.216,0.27,0.324
					c0.093,0.109,0.197,0.202,0.309,0.279c0.113,0.076,0.248,0.134,0.406,0.172c0.159,0.036,0.341,0.056,0.546,0.056
					c0.419,0,0.745-0.058,0.977-0.175c0.231-0.116,0.394-0.28,0.487-0.49c0.093-0.208,0.147-0.433,0.163-0.673
					c0.016-0.24,0.027-0.625,0.035-1.155c-0.25,0.349-0.537,0.614-0.864,0.796c-0.326,0.183-0.715,0.273-1.166,0.273
					c-0.542,0-1.016-0.139-1.422-0.416c-0.406-0.277-0.717-0.665-0.935-1.163c-0.218-0.499-0.326-1.074-0.326-1.728
					c0-0.486,0.065-0.927,0.198-1.317c0.133-0.393,0.322-0.723,0.567-0.992c0.246-0.269,0.528-0.472,0.849-0.608
					s0.673-0.204,1.057-0.204c0.459,0,0.857,0.088,1.193,0.263c0.336,0.178,0.649,0.453,0.938,0.829v-0.22
					c0-0.281,0.069-0.498,0.208-0.653c0.139-0.154,0.317-0.232,0.535-0.232c0.313,0,0.52,0.103,0.623,0.306
					C204.343,467.139,204.394,467.433,204.394,467.816z M199.699,469.871c0,0.656,0.143,1.153,0.43,1.489
					c0.287,0.337,0.658,0.505,1.113,0.505c0.269,0,0.523-0.072,0.762-0.217c0.24-0.145,0.435-0.362,0.585-0.653
					c0.15-0.291,0.226-0.643,0.226-1.06c0-0.66-0.145-1.176-0.436-1.543c-0.291-0.368-0.674-0.552-1.149-0.552
					c-0.463,0-0.834,0.176-1.113,0.528C199.838,468.721,199.699,469.222,199.699,469.871z"/>
				<path style="fill:#FFFFFF;" d="M206.97,467.525v0.196c0.285-0.376,0.597-0.652,0.935-0.828c0.338-0.176,0.727-0.265,1.167-0.265
					c0.427,0,0.809,0.094,1.146,0.279c0.336,0.186,0.588,0.449,0.754,0.789c0.107,0.198,0.176,0.412,0.208,0.642
					c0.032,0.229,0.048,0.522,0.048,0.879v3.015c0,0.325-0.074,0.571-0.223,0.737c-0.148,0.165-0.341,0.249-0.579,0.249
					c-0.242,0-0.438-0.085-0.588-0.256c-0.15-0.17-0.225-0.413-0.225-0.73v-2.7c0-0.534-0.075-0.943-0.223-1.226
					c-0.148-0.283-0.444-0.425-0.888-0.425c-0.289,0-0.552,0.086-0.789,0.258c-0.237,0.173-0.412,0.409-0.522,0.71
					c-0.079,0.241-0.119,0.692-0.119,1.352v2.03c0,0.328-0.077,0.576-0.229,0.74c-0.152,0.164-0.349,0.246-0.59,0.246
					c-0.234,0-0.426-0.085-0.576-0.256c-0.15-0.17-0.226-0.413-0.226-0.73v-4.683c0-0.31,0.067-0.54,0.202-0.692
					c0.135-0.152,0.319-0.228,0.552-0.228c0.143,0,0.271,0.033,0.387,0.102c0.114,0.067,0.207,0.168,0.276,0.302
					C206.935,467.167,206.97,467.332,206.97,467.525z"/>
				<path style="fill:#FFFFFF;" d="M216.829,470.322h-3.17c0.004,0.367,0.078,0.692,0.223,0.973
					c0.144,0.281,0.336,0.493,0.576,0.636c0.239,0.143,0.503,0.213,0.792,0.213c0.194,0,0.371-0.022,0.532-0.067
					c0.16-0.046,0.315-0.116,0.466-0.214c0.15-0.097,0.288-0.201,0.416-0.311c0.126-0.111,0.29-0.263,0.492-0.452
					c0.083-0.071,0.202-0.106,0.356-0.106c0.166,0,0.301,0.046,0.403,0.137c0.103,0.092,0.154,0.22,0.154,0.386
					c0,0.147-0.057,0.317-0.172,0.514c-0.115,0.195-0.288,0.384-0.52,0.564c-0.231,0.181-0.522,0.329-0.872,0.448
					c-0.351,0.119-0.753,0.179-1.208,0.179c-1.041,0-1.85-0.298-2.428-0.891c-0.577-0.594-0.866-1.399-0.866-2.416
					c0-0.48,0.071-0.924,0.214-1.332c0.142-0.41,0.351-0.762,0.623-1.055c0.273-0.293,0.609-0.517,1.009-0.674
					c0.399-0.156,0.843-0.233,1.33-0.233c0.633,0,1.175,0.132,1.629,0.4c0.453,0.267,0.792,0.612,1.019,1.035
					c0.225,0.424,0.338,0.855,0.338,1.294c0,0.408-0.117,0.672-0.351,0.793C217.581,470.261,217.253,470.322,216.829,470.322z
					 M213.659,469.401h2.938c-0.04-0.554-0.189-0.969-0.448-1.243c-0.259-0.275-0.6-0.413-1.023-0.413
					c-0.404,0-0.736,0.14-0.995,0.418C213.872,468.442,213.715,468.855,213.659,469.401z"/>
				<path style="fill:#FFFFFF;" d="M223.435,472.293v-0.161c-0.218,0.249-0.432,0.452-0.644,0.608
					c-0.211,0.156-0.441,0.275-0.689,0.357c-0.246,0.082-0.517,0.122-0.809,0.122c-0.389,0-0.748-0.082-1.078-0.246
					c-0.33-0.164-0.617-0.399-0.858-0.704c-0.242-0.305-0.425-0.662-0.549-1.074s-0.187-0.856-0.187-1.335
					c0-1.014,0.248-1.804,0.742-2.37c0.495-0.564,1.146-0.848,1.953-0.848c0.467,0,0.861,0.08,1.181,0.239
					c0.32,0.161,0.633,0.408,0.938,0.739v-2.392c0-0.333,0.066-0.584,0.199-0.754c0.132-0.17,0.322-0.255,0.567-0.255
					s0.434,0.078,0.567,0.234c0.132,0.156,0.199,0.386,0.199,0.691v7.147c0,0.309-0.071,0.54-0.214,0.694
					c-0.143,0.153-0.326,0.232-0.552,0.232c-0.221,0-0.404-0.08-0.549-0.24C223.507,472.817,223.435,472.589,223.435,472.293z
					 M220.248,469.912c0,0.439,0.067,0.813,0.204,1.122c0.137,0.309,0.324,0.541,0.562,0.696c0.237,0.157,0.497,0.236,0.777,0.236
					c0.285,0,0.545-0.075,0.78-0.224c0.236-0.147,0.424-0.376,0.564-0.682c0.14-0.308,0.21-0.691,0.21-1.149
					c0-0.432-0.07-0.803-0.21-1.114c-0.141-0.31-0.331-0.547-0.57-0.712c-0.24-0.164-0.501-0.245-0.787-0.245
					c-0.296,0-0.562,0.084-0.795,0.252c-0.233,0.168-0.414,0.409-0.543,0.724C220.311,469.132,220.248,469.496,220.248,469.912z"/>
				<path style="fill:#FFFFFF;" d="M230.059,465.146v2.475c0.304-0.316,0.615-0.559,0.932-0.727
					c0.316-0.168,0.708-0.252,1.175-0.252c0.538,0,1.01,0.127,1.416,0.382c0.405,0.256,0.72,0.626,0.944,1.11
					c0.223,0.484,0.335,1.06,0.335,1.726c0,0.49-0.063,0.939-0.187,1.35c-0.125,0.409-0.306,0.765-0.544,1.065
					c-0.238,0.301-0.525,0.534-0.863,0.698c-0.339,0.164-0.712,0.246-1.119,0.246c-0.25,0-0.484-0.029-0.704-0.09
					c-0.22-0.059-0.407-0.137-0.561-0.234c-0.154-0.096-0.286-0.196-0.395-0.3c-0.109-0.103-0.253-0.257-0.431-0.463v0.161
					c0,0.304-0.073,0.535-0.22,0.691c-0.146,0.156-0.332,0.234-0.558,0.234c-0.23,0-0.413-0.078-0.549-0.234
					c-0.137-0.156-0.205-0.388-0.205-0.691v-7.077c0-0.328,0.066-0.577,0.199-0.744c0.133-0.168,0.318-0.252,0.555-0.252
					c0.25,0,0.441,0.079,0.576,0.239C229.992,464.62,230.059,464.848,230.059,465.146z M230.136,469.96
					c0,0.645,0.148,1.14,0.442,1.486c0.294,0.347,0.682,0.521,1.161,0.521c0.407,0,0.759-0.178,1.053-0.532
					c0.295-0.354,0.442-0.861,0.442-1.522c0-0.428-0.061-0.796-0.184-1.105c-0.123-0.309-0.296-0.547-0.522-0.715
					c-0.226-0.168-0.489-0.252-0.79-0.252c-0.309,0-0.585,0.084-0.826,0.252c-0.241,0.168-0.431,0.411-0.57,0.729
					C230.206,469.141,230.136,469.521,230.136,469.96z"/>
				<path style="fill:#FFFFFF;" d="M236.963,473.42l0.148-0.362l-1.995-5.021c-0.122-0.288-0.184-0.499-0.184-0.63
					c0-0.139,0.036-0.267,0.107-0.385c0.071-0.119,0.169-0.214,0.293-0.285c0.125-0.072,0.255-0.107,0.389-0.107
					c0.233,0,0.409,0.074,0.529,0.223c0.119,0.148,0.223,0.361,0.314,0.638l1.372,3.989l1.3-3.71c0.103-0.3,0.195-0.536,0.279-0.706
					c0.083-0.171,0.171-0.285,0.264-0.344c0.093-0.06,0.225-0.09,0.395-0.09c0.124,0,0.241,0.032,0.353,0.099
					c0.113,0.065,0.2,0.153,0.261,0.264c0.062,0.11,0.093,0.228,0.093,0.351c-0.017,0.074-0.042,0.182-0.078,0.32
					c-0.036,0.139-0.079,0.279-0.13,0.422l-2.113,5.532c-0.183,0.486-0.36,0.868-0.535,1.145c-0.174,0.276-0.404,0.49-0.691,0.638
					c-0.287,0.149-0.674,0.223-1.161,0.223c-0.475,0-0.831-0.051-1.068-0.153c-0.238-0.104-0.357-0.292-0.357-0.565
					c0-0.185,0.056-0.33,0.17-0.431c0.112-0.101,0.28-0.151,0.501-0.151c0.087,0,0.172,0.012,0.255,0.036
					c0.103,0.023,0.192,0.035,0.267,0.035c0.186,0,0.333-0.027,0.439-0.083c0.106-0.056,0.203-0.151,0.288-0.288
					C236.753,473.887,236.852,473.685,236.963,473.42z"/>
			</g>
			<g>
				<path style="fill:#FFFFFF;" d="M260.439,466.77h0.387v-0.486c0-0.51,0.061-0.911,0.191-1.211c0.127-0.3,0.347-0.517,0.654-0.653
					c0.307-0.136,0.727-0.204,1.26-0.204c0.95,0,1.421,0.229,1.421,0.696c0,0.149-0.05,0.278-0.15,0.385
					c-0.097,0.105-0.214,0.16-0.349,0.16c-0.063,0-0.174-0.012-0.329-0.037c-0.148-0.021-0.283-0.035-0.39-0.035
					c-0.293,0-0.479,0.088-0.566,0.26c-0.08,0.172-0.122,0.418-0.122,0.74v0.386h0.395c0.62,0,0.927,0.186,0.927,0.56
					c0,0.262-0.079,0.432-0.246,0.503c-0.163,0.071-0.39,0.107-0.681,0.107h-0.395v4.295c0,0.319-0.075,0.563-0.232,0.729
					c-0.15,0.171-0.346,0.254-0.589,0.254c-0.23,0-0.419-0.083-0.573-0.254c-0.153-0.167-0.227-0.41-0.227-0.729v-4.295h-0.446
					c-0.243,0-0.427-0.052-0.559-0.163c-0.131-0.107-0.197-0.25-0.197-0.424C259.624,466.962,259.896,466.77,260.439,466.77"/>
				<path style="fill:#FFFFFF;" d="M265.745,470.878v1.355c0,0.327-0.083,0.574-0.233,0.737c-0.154,0.166-0.35,0.246-0.586,0.246
					c-0.239,0-0.43-0.082-0.58-0.25c-0.148-0.165-0.225-0.41-0.225-0.733v-4.515c0-0.729,0.263-1.093,0.788-1.093
					c0.271,0,0.464,0.084,0.583,0.255c0.119,0.171,0.185,0.421,0.198,0.755c0.192-0.334,0.391-0.584,0.593-0.755
					c0.208-0.171,0.477-0.255,0.818-0.255c0.344,0,0.671,0.084,0.991,0.255c0.322,0.171,0.481,0.398,0.481,0.679
					c0,0.196-0.068,0.362-0.203,0.488c-0.138,0.13-0.284,0.194-0.441,0.194c-0.063,0-0.207-0.039-0.433-0.112
					c-0.229-0.071-0.431-0.108-0.603-0.108c-0.237,0-0.433,0.064-0.582,0.186c-0.151,0.128-0.269,0.311-0.353,0.554
					c-0.081,0.247-0.137,0.541-0.17,0.878C265.759,469.978,265.745,470.392,265.745,470.878"/>
				<path style="fill:#FFFFFF;" d="M273.195,470.32h-3.171c0.005,0.367,0.077,0.694,0.222,0.975
					c0.146,0.278,0.337,0.491,0.578,0.635c0.24,0.143,0.502,0.213,0.793,0.213c0.193,0,0.37-0.022,0.53-0.07
					c0.159-0.043,0.315-0.115,0.466-0.213c0.151-0.095,0.288-0.198,0.415-0.313c0.126-0.108,0.292-0.26,0.494-0.449
					c0.084-0.07,0.202-0.108,0.355-0.108c0.168,0,0.302,0.047,0.406,0.139c0.103,0.092,0.152,0.219,0.152,0.386
					c0,0.147-0.056,0.317-0.167,0.512c-0.117,0.198-0.29,0.386-0.523,0.566c-0.233,0.179-0.523,0.33-0.873,0.446
					c-0.35,0.119-0.754,0.179-1.207,0.179c-1.045,0-1.853-0.295-2.43-0.889c-0.577-0.595-0.869-1.401-0.869-2.417
					c0-0.479,0.073-0.925,0.217-1.335c0.141-0.411,0.349-0.76,0.625-1.054c0.272-0.295,0.605-0.519,1.007-0.675
					c0.4-0.155,0.842-0.233,1.33-0.233c0.632,0,1.176,0.134,1.629,0.403c0.453,0.265,0.797,0.61,1.019,1.034
					c0.226,0.426,0.339,0.855,0.339,1.296c0,0.405-0.118,0.669-0.352,0.791C273.947,470.26,273.619,470.32,273.195,470.32
					 M270.024,469.398h2.939c-0.039-0.553-0.186-0.969-0.446-1.241c-0.262-0.276-0.6-0.412-1.025-0.412
					c-0.403,0-0.735,0.137-0.995,0.418C270.237,468.441,270.078,468.853,270.024,469.398"/>
				<path style="fill:#FFFFFF;" d="M279.938,470.32h-3.171c0.004,0.367,0.078,0.694,0.222,0.975
					c0.145,0.278,0.337,0.491,0.576,0.635c0.239,0.143,0.503,0.213,0.794,0.213c0.192,0,0.371-0.022,0.528-0.07
					c0.162-0.043,0.316-0.115,0.469-0.213c0.151-0.095,0.287-0.198,0.415-0.313c0.124-0.108,0.29-0.26,0.492-0.449
					c0.085-0.07,0.204-0.108,0.355-0.108c0.168,0,0.302,0.047,0.406,0.139c0.104,0.092,0.15,0.219,0.15,0.386
					c0,0.147-0.055,0.317-0.171,0.512c-0.11,0.198-0.284,0.386-0.518,0.566c-0.232,0.179-0.525,0.33-0.872,0.446
					c-0.349,0.119-0.755,0.179-1.21,0.179c-1.041,0-1.849-0.295-2.429-0.889c-0.577-0.595-0.868-1.401-0.868-2.417
					c0-0.479,0.073-0.925,0.218-1.335c0.142-0.411,0.349-0.76,0.622-1.054c0.272-0.295,0.608-0.519,1.009-0.675
					c0.399-0.155,0.845-0.233,1.331-0.233c0.63,0,1.174,0.134,1.633,0.403c0.45,0.265,0.791,0.61,1.014,1.034
					c0.225,0.426,0.341,0.855,0.341,1.296c0,0.405-0.12,0.669-0.352,0.791C280.688,470.26,280.36,470.32,279.938,470.32
					 M276.767,469.398h2.938c-0.04-0.553-0.189-0.969-0.447-1.241c-0.263-0.276-0.601-0.412-1.026-0.412
					c-0.403,0-0.734,0.137-0.995,0.418C276.978,468.441,276.819,468.853,276.767,469.398"/>
				<path style="fill:#FFFFFF;" d="M283.487,467.538v0.193c0.304-0.375,0.621-0.65,0.953-0.827c0.324-0.178,0.698-0.267,1.113-0.267
					c0.497,0,0.96,0.13,1.38,0.386c0.419,0.259,0.749,0.635,0.993,1.129c0.243,0.497,0.366,1.081,0.366,1.759
					c0,0.497-0.07,0.957-0.21,1.375c-0.14,0.418-0.336,0.767-0.581,1.05c-0.245,0.282-0.534,0.502-0.868,0.654
					c-0.339,0.15-0.694,0.227-1.08,0.227c-0.461,0-0.852-0.093-1.165-0.279c-0.315-0.183-0.614-0.458-0.901-0.816v2.434
					c0,0.709-0.26,1.068-0.777,1.068c-0.307,0-0.506-0.092-0.608-0.274c-0.095-0.186-0.145-0.452-0.145-0.807v-6.996
					c0-0.31,0.066-0.537,0.2-0.692c0.134-0.149,0.319-0.227,0.553-0.227c0.23,0,0.416,0.078,0.56,0.233
					C283.417,467.019,283.487,467.241,283.487,467.538 M286.665,469.893c0-0.428-0.066-0.796-0.196-1.102
					c-0.131-0.308-0.313-0.542-0.542-0.705c-0.229-0.164-0.488-0.248-0.77-0.248c-0.446,0-0.824,0.178-1.131,0.527
					c-0.308,0.354-0.462,0.872-0.462,1.559c0,0.642,0.152,1.146,0.46,1.504c0.304,0.358,0.678,0.536,1.133,0.536
					c0.268,0,0.519-0.079,0.748-0.232c0.231-0.158,0.415-0.392,0.552-0.704C286.596,470.714,286.665,470.335,286.665,469.893"/>
				<path style="fill:#FFFFFF;" d="M289.925,465.871c-0.227,0-0.418-0.071-0.577-0.209c-0.162-0.139-0.242-0.333-0.242-0.585
					c0-0.23,0.082-0.419,0.248-0.569c0.164-0.147,0.354-0.222,0.571-0.222c0.212,0,0.398,0.066,0.559,0.199
					c0.162,0.137,0.244,0.334,0.244,0.592c0,0.249-0.079,0.444-0.236,0.584C290.332,465.8,290.145,465.871,289.925,465.871
					 M290.727,467.546v4.689c0,0.322-0.077,0.567-0.231,0.732c-0.156,0.168-0.351,0.25-0.588,0.25c-0.238,0-0.428-0.083-0.58-0.254
					c-0.147-0.173-0.223-0.415-0.223-0.728v-4.643c0-0.318,0.076-0.559,0.223-0.721c0.152-0.166,0.342-0.245,0.58-0.245
					c0.237,0,0.432,0.079,0.588,0.245C290.65,467.033,290.727,467.26,290.727,467.546"/>
				<path style="fill:#FFFFFF;" d="M295.952,472.478l-1.428-2.354l-0.88,0.83v1.291c0,0.312-0.083,0.551-0.248,0.718
					c-0.16,0.171-0.353,0.254-0.566,0.254c-0.249,0-0.447-0.082-0.588-0.25c-0.142-0.165-0.215-0.41-0.215-0.733v-6.915
					c0-0.358,0.071-0.632,0.207-0.82c0.14-0.19,0.341-0.283,0.596-0.283c0.25,0,0.445,0.086,0.594,0.257
					c0.145,0.169,0.221,0.422,0.221,0.752v3.933l1.822-1.914c0.227-0.234,0.395-0.4,0.517-0.486c0.119-0.087,0.262-0.13,0.432-0.13
					c0.203,0,0.371,0.064,0.509,0.192c0.133,0.129,0.2,0.292,0.2,0.483c0,0.237-0.221,0.556-0.659,0.951l-0.86,0.789l1.662,2.614
					c0.121,0.196,0.212,0.34,0.265,0.441c0.053,0.1,0.082,0.199,0.082,0.289c0,0.258-0.072,0.459-0.214,0.609
					c-0.14,0.147-0.327,0.221-0.554,0.221c-0.197,0-0.352-0.051-0.458-0.159C296.281,472.949,296.133,472.755,295.952,472.478"/>
				<path style="fill:#FFFFFF;" d="M299.475,473.217c-0.245,0-0.455-0.078-0.634-0.237c-0.178-0.156-0.268-0.379-0.268-0.666
					c0-0.241,0.086-0.449,0.256-0.622c0.172-0.174,0.38-0.262,0.63-0.262c0.248,0,0.46,0.088,0.64,0.258
					c0.174,0.172,0.263,0.383,0.263,0.626c0,0.283-0.089,0.505-0.263,0.662C299.919,473.139,299.711,473.217,299.475,473.217"/>
				<path style="fill:#FFFFFF;" d="M307.536,471.211c0,0.2-0.061,0.417-0.182,0.646c-0.12,0.232-0.306,0.448-0.554,0.656
					c-0.247,0.207-0.558,0.376-0.935,0.502c-0.376,0.126-0.801,0.191-1.27,0.191c-1.004,0-1.786-0.293-2.349-0.876
					c-0.56-0.584-0.841-1.368-0.841-2.35c0-0.667,0.128-1.253,0.387-1.765c0.255-0.51,0.628-0.904,1.113-1.184
					c0.487-0.28,1.073-0.419,1.746-0.419c0.422,0,0.806,0.062,1.158,0.185c0.351,0.122,0.646,0.282,0.891,0.474
					c0.242,0.197,0.429,0.402,0.556,0.62c0.13,0.221,0.192,0.426,0.192,0.617c0,0.192-0.07,0.357-0.214,0.492
					c-0.147,0.135-0.322,0.203-0.524,0.203c-0.137,0-0.248-0.036-0.338-0.105c-0.09-0.07-0.19-0.181-0.3-0.339
					c-0.198-0.299-0.403-0.525-0.622-0.674c-0.214-0.152-0.487-0.227-0.821-0.227c-0.476,0-0.864,0.187-1.158,0.561
					c-0.292,0.373-0.439,0.888-0.439,1.534c0,0.305,0.039,0.587,0.114,0.842c0.073,0.255,0.182,0.473,0.325,0.653
					c0.145,0.179,0.315,0.315,0.517,0.408c0.202,0.096,0.426,0.142,0.664,0.142c0.326,0,0.604-0.075,0.836-0.226
					c0.235-0.15,0.439-0.38,0.616-0.689c0.1-0.182,0.205-0.323,0.318-0.427c0.114-0.102,0.256-0.155,0.422-0.155
					c0.198,0,0.363,0.076,0.492,0.227C307.47,470.88,307.536,471.042,307.536,471.211"/>
				<path style="fill:#FFFFFF;" d="M314.53,469.923c0,0.481-0.076,0.928-0.223,1.337c-0.154,0.408-0.369,0.758-0.656,1.049
					c-0.284,0.293-0.626,0.518-1.02,0.676c-0.399,0.154-0.844,0.234-1.337,0.234c-0.49,0-0.934-0.08-1.325-0.239
					c-0.39-0.156-0.732-0.385-1.017-0.677c-0.288-0.298-0.505-0.646-0.657-1.048c-0.144-0.402-0.219-0.847-0.219-1.332
					c0-0.491,0.077-0.941,0.224-1.349c0.151-0.409,0.368-0.758,0.649-1.046c0.282-0.288,0.62-0.511,1.02-0.669
					c0.401-0.155,0.844-0.233,1.325-0.233c0.49,0,0.936,0.078,1.337,0.238c0.398,0.157,0.739,0.384,1.027,0.675
					c0.286,0.297,0.502,0.643,0.649,1.045C314.455,468.991,314.53,469.435,314.53,469.923 M312.902,469.923
					c0-0.661-0.146-1.176-0.436-1.543c-0.289-0.372-0.681-0.555-1.171-0.555c-0.317,0-0.597,0.083-0.839,0.246
					c-0.242,0.163-0.426,0.406-0.557,0.728c-0.13,0.321-0.196,0.695-0.196,1.124c0,0.425,0.064,0.792,0.193,1.108
					c0.13,0.319,0.314,0.56,0.553,0.728c0.241,0.167,0.522,0.253,0.846,0.253c0.49,0,0.882-0.185,1.171-0.557
					C312.756,471.086,312.902,470.573,312.902,469.923"/>
				<path style="fill:#FFFFFF;" d="M320.712,470.042v2.154c0,0.342-0.075,0.594-0.23,0.767c-0.156,0.171-0.357,0.256-0.611,0.256
					c-0.245,0-0.446-0.085-0.594-0.256c-0.155-0.173-0.233-0.425-0.233-0.767v-2.582c0-0.408-0.014-0.727-0.04-0.953
					c-0.028-0.221-0.105-0.409-0.227-0.552c-0.123-0.147-0.318-0.22-0.582-0.22c-0.531,0-0.879,0.182-1.048,0.551
					c-0.167,0.36-0.254,0.883-0.254,1.566v2.189c0,0.336-0.076,0.591-0.226,0.765c-0.155,0.171-0.355,0.258-0.603,0.258
					c-0.248,0-0.448-0.087-0.605-0.258c-0.157-0.174-0.235-0.429-0.235-0.765v-4.637c0-0.307,0.069-0.538,0.21-0.695
					c0.143-0.16,0.328-0.238,0.556-0.238c0.223,0,0.407,0.077,0.558,0.222c0.147,0.149,0.221,0.354,0.221,0.615v0.153
					c0.283-0.334,0.585-0.582,0.903-0.737c0.322-0.162,0.676-0.241,1.07-0.241c0.407,0,0.757,0.082,1.049,0.243
					c0.293,0.163,0.533,0.41,0.725,0.735c0.274-0.33,0.568-0.576,0.882-0.737c0.313-0.161,0.658-0.241,1.039-0.241
					c0.44,0,0.825,0.089,1.146,0.262c0.319,0.174,0.559,0.425,0.718,0.747c0.138,0.295,0.206,0.756,0.206,1.386v3.164
					c0,0.342-0.076,0.594-0.229,0.767c-0.154,0.171-0.359,0.256-0.612,0.256c-0.246,0-0.446-0.087-0.603-0.258
					c-0.156-0.174-0.235-0.429-0.235-0.765v-2.726c0-0.35-0.015-0.627-0.044-0.837c-0.029-0.21-0.11-0.388-0.238-0.529
					c-0.133-0.142-0.332-0.215-0.596-0.215c-0.214,0-0.417,0.066-0.609,0.192c-0.191,0.124-0.342,0.298-0.45,0.508
					C320.774,468.864,320.712,469.348,320.712,470.042"/>
			</g>
			<g>
				<path style="fill:#FFFFFF;" d="M245.272,469.53c-0.002-0.003-0.002-0.006-0.002-0.011
					C245.27,469.524,245.27,469.527,245.272,469.53z"/>
				<path style="fill:#FFFFFF;" d="M245.353,470.049c0.002,0,0.002,0,0.002,0c-0.031-0.147-0.055-0.294-0.074-0.438
					C245.3,469.756,245.324,469.903,245.353,470.049z"/>
				<path style="fill:#FFFFFF;" d="M245.89,471.553c-0.003-0.006-0.007-0.014-0.011-0.021
					C245.883,471.539,245.887,471.547,245.89,471.553z"/>
				<path style="fill:#FFFFFF;" d="M245.839,471.452c-0.014-0.027-0.027-0.056-0.041-0.083
					C245.811,471.398,245.825,471.425,245.839,471.452z"/>
				<path style="fill:#FFFFFF;" d="M245.504,470.628c0.08,0.25,0.175,0.493,0.286,0.724c-0.112-0.236-0.206-0.479-0.283-0.724
					C245.506,470.628,245.505,470.628,245.504,470.628z"/>
				<path style="fill:#FFFFFF;" d="M251.545,463.32c0.313,0,0.545,0.025,0.81,0.069l0.075-0.477c0,0-0.731-0.225-1.694-0.146
					l-0.076-0.26c0.299-0.063,0.523-0.328,0.523-0.646c0-0.364-0.296-0.659-0.661-0.659c-0.364,0-0.66,0.295-0.66,0.659
					c0,0.317,0.224,0.583,0.522,0.646l0.083,0.29c-1.021,0.141-1.834,0.539-1.834,0.539l0.144,0.44
					c0.618-0.206,1.154-0.331,1.64-0.384C250.895,463.342,251.253,463.32,251.545,463.32z"/>
				<path style="fill:#FFFFFF;" d="M245.878,465.731l0.004-0.005c0.024-0.031,0.047-0.061,0.07-0.089l-0.195-0.141l-0.305-0.223
					c-0.018,0.023-0.497,0.465-0.876,1.279c-0.016-0.025-0.035-0.051-0.056-0.074c-0.114-0.124-0.272-0.188-0.474-0.184
					c-0.002,0-0.006,0-0.009,0c-0.124,0-0.21-0.042-0.267-0.093c0.056-0.07,0.089-0.159,0.089-0.258c0-0.23-0.187-0.418-0.418-0.418
					c-0.23,0-0.418,0.188-0.418,0.418c0,0.231,0.188,0.418,0.418,0.418c0.036,0,0.071-0.006,0.104-0.013
					c0.103,0.114,0.266,0.214,0.505,0.209c0.123-0.001,0.213,0.03,0.273,0.097c0.069,0.076,0.093,0.185,0.1,0.267
					c0,0.001,0,0.003-0.001,0.003c-0.273,0.743-0.194,1.669-0.194,1.669l0.661,0.026c0.013-0.337,0.062-0.927,0.232-1.395
					C245.449,466.322,245.861,465.756,245.878,465.731z"/>
				<path style="fill:#FFFFFF;" d="M257.295,463.873c-0.23,0-0.418,0.187-0.418,0.418c0,0.035,0.005,0.07,0.015,0.103
					c-0.115,0.104-0.215,0.268-0.211,0.507c0.002,0.123-0.029,0.213-0.097,0.273c-0.053,0.048-0.119,0.072-0.185,0.088
					c-0.492-0.688-1.098-1.109-1.098-1.109l-0.474,0.509c0.358,0.326,0.724,0.734,1.08,1.244c0.246,0.352,0.499,0.806,0.71,1.259
					l0.64-0.304c0,0-0.292-0.723-0.703-1.37c0.071-0.024,0.143-0.063,0.207-0.12c0.125-0.113,0.186-0.272,0.183-0.474
					c-0.001-0.13,0.042-0.218,0.093-0.275c0.071,0.054,0.161,0.089,0.258,0.089c0.232,0,0.419-0.188,0.419-0.418
					C257.714,464.06,257.526,463.873,257.295,463.873z"/>
				<path style="fill:#FFFFFF;" d="M255.634,469.624c-0.881,0.429-2.33,0.996-4.238,1.262c-0.748,0.104-1.474,0.143-2.142,0.143
					c-0.869,0-1.637-0.064-2.227-0.14c-0.673-0.084-1.199-0.188-1.52-0.261c0.077,0.245,0.171,0.487,0.283,0.724
					c0.002,0.007,0.005,0.013,0.008,0.018c0.014,0.027,0.027,0.056,0.041,0.083c0.014,0.028,0.027,0.055,0.041,0.08
					c0.004,0.007,0.007,0.015,0.011,0.021c0.189,0.357,0.417,0.685,0.675,0.968c0.9,0.984,1.817,1.141,1.826,1.142l0.014,0.002
					l0.014,0.005c0.008,0.003,0.821,0.266,2.057,0.266c1.215,0,2.409-0.246,3.546-0.729c0.842-0.431,1.639-1.085,2.033-1.669
					c0.306-0.452,0.525-0.933,0.656-1.434c0.069-0.267,0.124-0.692,0.092-1.141C256.557,469.128,256.164,469.366,255.634,469.624z"
					/>
				<path style="fill:#FFFFFF;" d="M246.161,465.94c-0.025,0.037-0.407,0.578-0.709,1.408c-0.226,0.622-0.216,1.527-0.216,1.537
					v0.002c0,0.213,0.012,0.423,0.035,0.632c0,0.005,0,0.008,0.002,0.011c0.002,0.027,0.007,0.053,0.009,0.08
					c0.019,0.145,0.043,0.291,0.074,0.438c0.438,0.111,3.049,0.721,5.968,0.314c1.829-0.254,3.218-0.795,4.062-1.204
					c0.701-0.34,1.151-0.647,1.325-0.773c-0.173-0.643-0.651-1.65-1.09-2.279c-1.253-1.791-2.604-2.25-3.298-2.364
					c-0.265-0.044-0.477-0.068-0.777-0.068c-0.279,0-0.626,0.022-1.089,0.071c-0.464,0.048-0.982,0.17-1.583,0.372
					c-0.842,0.282-1.604,0.725-2.204,1.28l-0.02,0.018C246.56,465.497,246.374,465.669,246.161,465.94z M253.829,465.523
					c0.601,0,1.09,0.488,1.09,1.09c0,0.601-0.489,1.09-1.09,1.09s-1.089-0.489-1.089-1.09
					C252.74,466.012,253.228,465.523,253.829,465.523z M248.678,465.48c0.973,0,1.76,0.788,1.76,1.761
					c0,0.973-0.787,1.759-1.76,1.759c-0.972,0-1.76-0.786-1.76-1.759C246.918,466.269,247.706,465.48,248.678,465.48z"/>
			</g>
		</g>
	</g>
</g>
</svg>
